<?plantuml 1.2026.2?><svg xmlns="http://www.w3.org/2000/svg" xmlns:xlink="http://www.w3.org/1999/xlink" contentStyleType="text/css" data-diagram-type="CLASS" height="308px" preserveAspectRatio="none" style="width:392px;height:308px;background:#FFFFFF;" version="1.1" viewBox="0 0 392 308" width="392px" zoomAndPan="magnify"><defs/><g><path d="M138.12,6.602 L192.0153,6.602 A3.75,3.75 0 0 1 194.5153,9.102 L201.5153,31.6699 L206.0153,31.6699 A2.5,2.5 0 0 1 208.5153,34.1699 L208.5153,62.2378 A2.5,2.5 0 0 1 206.0153,64.7378 L138.12,64.7378 A2.5,2.5 0 0 1 135.62,62.2378 L135.62,9.102 A2.5,2.5 0 0 1 138.12,6.602" fill="#F1F1F1" style="stroke:#181818;stroke-width:0.5;"/><line style="stroke:#181818;stroke-width:0.5;" x1="135.62" x2="201.5153" y1="31.6699" y2="31.6699"/><text fill="#000000" font-family="sans-serif" font-size="14" font-weight="bold" lengthAdjust="spacing" textLength="52.8953" x="139.62" y="23.5679">guitility</text><path d="M8.5,124.742 L57.6318,124.742 A3.75,3.75 0 0 1 60.1318,127.242 L67.1318,149.8099 L71.6318,149.8099 A2.5,2.5 0 0 1 74.1318,152.3099 L74.1318,180.3778 A2.5,2.5 0 0 1 71.6318,182.8778 L8.5,182.8778 A2.5,2.5 0 0 1 6,180.3778 L6,127.242 A2.5,2.5 0 0 1 8.5,124.742" fill="#F1F1F1" style="stroke:#181818;stroke-width:0.5;"/><line style="stroke:#181818;stroke-width:0.5;" x1="6" x2="67.1318" y1="149.8099" y2="149.8099"/><text fill="#000000" font-family="sans-serif" font-size="14" font-weight="bold" lengthAdjust="spacing" textLength="48.1318" x="10" y="141.7079">netility</text><path d="M195.33,242.872 L254.8113,242.872 A3.75,3.75 0 0 1 257.3113,245.372 L264.3113,267.9399 L268.8113,267.9399 A2.5,2.5 0 0 1 271.3113,270.4399 L271.3113,298.5078 A2.5,2.5 0 0 1 268.8113,301.0078 L195.33,301.0078 A2.5,2.5 0 0 1 192.83,298.5078 L192.83,245.372 A2.5,2.5 0 0 1 195.33,242.872" fill="#F1F1F1" style="stroke:#181818;stroke-width:0.5;"/><line style="stroke:#181818;stroke-width:0.5;" x1="192.83" x2="264.3113" y1="267.9399" y2="267.9399"/><text fill="#000000" font-family="sans-serif" font-size="14" font-weight="bold" lengthAdjust="spacing" textLength="58.4813" x="196.83" y="259.8379">nordility</text><path d="M182.66,124.742 L239.4673,124.742 A3.75,3.75 0 0 1 241.9673,127.242 L248.9673,149.8099 L253.4673,149.8099 A2.5,2.5 0 0 1 255.9673,152.3099 L255.9673,180.3778 A2.5,2.5 0 0 1 253.4673,182.8778 L182.66,182.8778 A2.5,2.5 0 0 1 180.16,180.3778 L180.16,127.242 A2.5,2.5 0 0 1 182.66,124.742" fill="#F1F1F1" style="stroke:#181818;stroke-width:0.5;"/><line style="stroke:#181818;stroke-width:0.5;" x1="180.16" x2="248.9673" y1="149.8099" y2="149.8099"/><text fill="#000000" font-family="sans-serif" font-size="14" font-weight="bold" lengthAdjust="spacing" textLength="55.8073" x="184.16" y="141.7079">postility</text><path d="M293.12,124.742 L369.0162,124.742 A3.75,3.75 0 0 1 371.5162,127.242 L378.5162,149.8099 L383.0162,149.8099 A2.5,2.5 0 0 1 385.5162,152.3099 L385.5162,180.3778 A2.5,2.5 0 0 1 383.0162,182.8778 L293.12,182.8778 A2.5,2.5 0 0 1 290.62,180.3778 L290.62,127.242 A2.5,2.5 0 0 1 293.12,124.742" fill="#F1F1F1" style="stroke:#181818;stroke-width:0.5;"/><line style="stroke:#181818;stroke-width:0.5;" x1="290.62" x2="378.5162" y1="149.8099" y2="149.8099"/><text fill="#000000" font-family="sans-serif" font-size="14" font-weight="bold" lengthAdjust="spacing" textLength="74.8962" x="294.62" y="141.7079">seleamility</text><!--link guitility to netility--><g class="link" data-entity-1="ent0002" data-entity-2="ent0003" data-link-type="dependency" data-source-line="12" id="lnk7"><path codeLine="12" d="M139.78,65.082 C119.32,83.082 97.4645,102.3085 76.9845,120.3285" fill="none" id="guitility-to-netility" style="stroke:#181818;stroke-width:1;"/><polygon fill="#181818" points="72.48,124.292,81.8791,121.3498,76.2338,120.9891,76.5945,115.3437,72.48,124.292" style="stroke:#181818;stroke-width:1;"/></g><!--link guitility to nordility--><g class="link" data-entity-1="ent0002" data-entity-2="ent0004" data-link-type="dependency" data-source-line="13" id="lnk8"><path codeLine="13" d="M164.01,65.022 C156.89,95.132 149.54,143.692 163.07,182.872 C170.86,205.462 183.0133,222.2696 197.7833,238.2196" fill="none" id="guitility-to-nordility" style="stroke:#181818;stroke-width:1;"/><polygon fill="#181818" points="201.86,242.622,198.6799,233.3007,198.4628,238.9533,192.8101,238.7362,201.86,242.622" style="stroke:#181818;stroke-width:1;"/></g><!--link guitility to postility--><g class="link" data-entity-1="ent0002" data-entity-2="ent0005" data-link-type="dependency" data-source-line="14" id="lnk9"><path codeLine="14" d="M183.32,65.082 C190.45,83.082 197.4198,100.6939 204.5598,118.7139" fill="none" id="guitility-to-postility" style="stroke:#181818;stroke-width:1;"/><polygon fill="#181818" points="206.77,124.292,207.1734,114.4514,204.9282,119.6436,199.736,117.3983,206.77,124.292" style="stroke:#181818;stroke-width:1;"/></g><!--link guitility to seleamility--><g class="link" data-entity-1="ent0002" data-entity-2="ent0006" data-link-type="dependency" data-source-line="15" id="lnk10"><path codeLine="15" d="M208.91,62.442 C235.08,80.752 265.3134,101.9129 292.3334,120.8129" fill="none" id="guitility-to-seleamility" style="stroke:#181818;stroke-width:1;"/><polygon fill="#181818" points="297.25,124.252,292.1678,115.8157,293.1528,121.3861,287.5824,122.3711,297.25,124.252" style="stroke:#181818;stroke-width:1;"/></g><!--link seleamility to nordility--><g class="link" data-entity-1="ent0006" data-entity-2="ent0004" data-link-type="dependency" data-source-line="16" id="lnk11"><path codeLine="16" d="M312.14,183.222 C295.71,201.212 278.5851,219.9806 262.1451,237.9906" fill="none" id="seleamility-to-nordility" style="stroke:#181818;stroke-width:1;"/><polygon fill="#181818" points="258.1,242.422,267.1219,238.4716,261.4709,238.7292,261.2134,233.0782,258.1,242.422" style="stroke:#181818;stroke-width:1;"/></g><?plantuml-src NOx12OKm44JlgMBnRWisOGMB3XBK96JZGUJt_aL8iidn3O-P4IHoV482BvWHE7BoaPntC6-qymOQjiicUzXq3yH2XUWnloevA2T3f_YuAYTJAmKlggXGAmaEy5arnPzOFuxZLDxqSJxGvMMpozM8qODDrny0?></g></svg>