<?plantuml 1.2026.2?><svg xmlns="http://www.w3.org/2000/svg" xmlns:xlink="http://www.w3.org/1999/xlink" contentStyleType="text/css" data-diagram-type="CLASS" height="81px" preserveAspectRatio="none" style="width:304px;height:81px;background:#FFFFFF;" version="1.1" viewBox="0 0 304 81" width="304px" zoomAndPan="magnify"><defs/><g><!--class postility.LoggingCursor--><g class="entity" data-qualified-name="postility.LoggingCursor" data-source-line="2" id="ent0002"><rect fill="#F1F1F1" height="67.0679" rx="2.5" ry="2.5" style="stroke:#181818;stroke-width:0.5;" width="130.1396" x="7" y="7"/><ellipse cx="22" cy="23" fill="#ADD1B2" rx="11" ry="11" style="stroke:#181818;stroke-width:1;"/><path d="M22.1094,18.2813 Q21.1875,18.2813 20.4531,18.5938 Q19.7344,18.9063 19.2344,19.5 Q18.7344,20.0781 18.4531,20.9531 Q18.1875,21.8281 18.1875,22.9219 Q18.1875,24.3594 18.625,25.4063 Q19.0781,26.4531 19.9219,27 Q20.7813,27.5469 22.0938,27.5469 Q22.875,27.5469 23.5625,27.4219 Q24.2656,27.2813 25.2656,26.9688 L25.2656,28.8438 Q24.4063,29.1719 23.6406,29.2969 Q22.8906,29.4219 21.875,29.4219 Q19.9531,29.4219 18.6406,28.625 Q17.3438,27.8125 16.6875,26.3438 Q16.0313,24.8594 16.0313,22.8906 Q16.0313,21.4688 16.4219,20.2969 Q16.8281,19.1094 17.6094,18.2344 Q18.3906,17.3594 19.5313,16.8906 Q20.6719,16.4063 22.1406,16.4063 Q23.0938,16.4063 23.9844,16.6094 Q24.8906,16.7969 25.8281,17.2656 L25,19.0469 Q24.2188,18.6719 23.5625,18.4844 Q22.9063,18.2813 22.1094,18.2813 Z " fill="#000000"/><text fill="#000000" font-family="sans-serif" font-size="14" lengthAdjust="spacing" textLength="98.1396" x="36" y="28.432">LoggingCursor</text><line style="stroke:#181818;stroke-width:0.5;" x1="8" x2="136.1396" y1="39" y2="39"/><line style="stroke:#181818;stroke-width:0.5;" x1="8" x2="136.1396" y1="47" y2="47"/><text fill="#000000" font-family="sans-serif" font-size="14" lengthAdjust="spacing" textLength="115.1916" x="13" y="65.9659">execute(sql, args)</text></g><!--class guitility.ciTerminalGUI--><g class="entity" data-qualified-name="guitility.ciTerminalGUI" data-source-line="5" id="ent0003"><rect fill="#F1F1F1" height="67.0679" rx="2.5" ry="2.5" style="stroke:#181818;stroke-width:0.5;" width="125.7856" x="172.18" y="7"/><ellipse cx="187.18" cy="23" fill="#ADD1B2" rx="11" ry="11" style="stroke:#181818;stroke-width:1;"/><path d="M187.2894,18.2813 Q186.3675,18.2813 185.6331,18.5938 Q184.9144,18.9063 184.4144,19.5 Q183.9144,20.0781 183.6331,20.9531 Q183.3675,21.8281 183.3675,22.9219 Q183.3675,24.3594 183.805,25.4063 Q184.2581,26.4531 185.1019,27 Q185.9613,27.5469 187.2738,27.5469 Q188.055,27.5469 188.7425,27.4219 Q189.4456,27.2813 190.4456,26.9688 L190.4456,28.8438 Q189.5863,29.1719 188.8206,29.2969 Q188.0706,29.4219 187.055,29.4219 Q185.1331,29.4219 183.8206,28.625 Q182.5238,27.8125 181.8675,26.3438 Q181.2113,24.8594 181.2113,22.8906 Q181.2113,21.4688 181.6019,20.2969 Q182.0081,19.1094 182.7894,18.2344 Q183.5706,17.3594 184.7113,16.8906 Q185.8519,16.4063 187.3206,16.4063 Q188.2738,16.4063 189.1644,16.6094 Q190.0706,16.7969 191.0081,17.2656 L190.18,19.0469 Q189.3988,18.6719 188.7425,18.4844 Q188.0863,18.2813 187.2894,18.2813 Z " fill="#000000"/><text fill="#000000" font-family="sans-serif" font-size="14" lengthAdjust="spacing" textLength="93.7856" x="201.18" y="28.432">ciTerminalGUI</text><line style="stroke:#181818;stroke-width:0.5;" x1="173.18" x2="296.9656" y1="39" y2="39"/><line style="stroke:#181818;stroke-width:0.5;" x1="173.18" x2="296.9656" y1="47" y2="47"/><text fill="#000000" font-family="sans-serif" font-size="14" lengthAdjust="spacing" textLength="38.8499" x="178.18" y="65.9659">start()</text></g><?plantuml-src LSn12i90343H_PmYT5L1l8IB8hXJ3n2640BJoPXaG2dUNIbsqVNdFwU0YZDvmqmtQcWOQb2rKie5tM6uAhDKFdTpjG7GeQc758dtQTTWIG3qejo3Hd-M8w2n7z9daxBSoMQfMAR7PPMuor_QjLNoG8lnjty1?></g></svg>
