<?xml version="1.0" encoding="UTF-8" standalone="no"?>
<!DOCTYPE svg PUBLIC "-//W3C//DTD SVG 1.1//EN"
 "http://www.w3.org/Graphics/SVG/1.1/DTD/svg11.dtd">
<!-- Generated by graphviz version 13.1.2 (20250808.2320)
 -->
<!-- Title: G Pages: 1 -->
<svg width="266pt" height="225pt"
 viewBox="0.00 0.00 266.00 225.00" xmlns="http://www.w3.org/2000/svg" xmlns:xlink="http://www.w3.org/1999/xlink">
<g id="graph0" class="graph" transform="scale(1 1) rotate(0) translate(4 221)">
<title>G</title><style>.edge>path:hover{stroke-width:8}</style>
<polygon fill="white" stroke="none" points="-4,4 -4,-221 262,-221 262,4 -4,4"/>
<!-- guitility_py -->
<g id="node1" class="node">
<title>guitility_py</title><style>.edge>path:hover{stroke-width:8}</style>
<ellipse fill="#924e4e" stroke="black" cx="82" cy="-18" rx="34.68" ry="18"/>
<text xml:space="preserve" text-anchor="middle" x="82" y="-13.75" font-family="Helvetica,sans-Serif" font-size="10.00" fill="#ffffff">guitility.py</text>
</g>
<!-- netility -->
<g id="node2" class="node">
<title>netility</title><style>.edge>path:hover{stroke-width:8}</style>
<ellipse fill="#a2b653" stroke="black" cx="27" cy="-127" rx="27" ry="18"/>
<text xml:space="preserve" text-anchor="middle" x="27" y="-122.75" font-family="Helvetica,sans-Serif" font-size="10.00" fill="#000000">netility</text>
</g>
<!-- netility&#45;&gt;guitility_py -->
<g id="edge1" class="edge">
<title>netility&#45;&gt;guitility_py</title><style>.edge>path:hover{stroke-width:8}</style>
<path fill="none" stroke="black" d="M49.56,-116.55C67.34,-107.48 88.2,-92.32 82,-73"/>
<path fill="none" stroke="black" d="M82,-72C79.51,-64.23 78.74,-55.48 78.8,-47.37"/>
<polygon fill="#a2b653" stroke="black" points="82.29,-47.8 79.31,-37.63 75.3,-47.44 82.29,-47.8"/>
</g>
<!-- nordility -->
<g id="node3" class="node">
<title>nordility</title><style>.edge>path:hover{stroke-width:8}</style>
<ellipse fill="#47c278" stroke="black" cx="114" cy="-199" rx="29" ry="18"/>
<text xml:space="preserve" text-anchor="middle" x="114" y="-194.75" font-family="Helvetica,sans-Serif" font-size="10.00" fill="#000000">nordility</text>
</g>
<!-- nordility&#45;&gt;guitility_py -->
<g id="edge2" class="edge">
<title>nordility&#45;&gt;guitility_py</title><style>.edge>path:hover{stroke-width:8}</style>
<path fill="none" stroke="black" d="M109.74,-180.89C101.81,-149.11 85.3,-83.29 82,-73"/>
</g>
<!-- seleamility -->
<g id="node5" class="node">
<title>seleamility</title><style>.edge>path:hover{stroke-width:8}</style>
<ellipse fill="#9e4cb3" stroke="black" cx="146" cy="-127" rx="36.43" ry="18"/>
<text xml:space="preserve" text-anchor="middle" x="146" y="-122.75" font-family="Helvetica,sans-Serif" font-size="10.00" fill="#ffffff">seleamility</text>
</g>
<!-- nordility&#45;&gt;seleamility -->
<g id="edge3" class="edge">
<title>nordility&#45;&gt;seleamility</title><style>.edge>path:hover{stroke-width:8}</style>
<path fill="none" stroke="black" d="M121.58,-181.41C125.16,-173.59 129.51,-164.06 133.55,-155.23"/>
<polygon fill="#47c278" stroke="black" points="136.64,-156.88 137.62,-146.33 130.28,-153.97 136.64,-156.88"/>
</g>
<!-- postility -->
<g id="node4" class="node">
<title>postility</title><style>.edge>path:hover{stroke-width:8}</style>
<ellipse fill="#537bb6" stroke="black" cx="229" cy="-127" rx="29" ry="18"/>
<text xml:space="preserve" text-anchor="middle" x="229" y="-122.75" font-family="Helvetica,sans-Serif" font-size="10.00" fill="#ffffff">postility</text>
</g>
<!-- postility&#45;&gt;guitility_py -->
<g id="edge4" class="edge">
<title>postility&#45;&gt;guitility_py</title><style>.edge>path:hover{stroke-width:8}</style>
<path fill="none" stroke="black" d="M206.25,-115.37C201.27,-113.17 195.99,-110.93 191,-109 143.43,-90.56 97.59,-121.58 82,-73"/>
</g>
<!-- seleamility&#45;&gt;guitility_py -->
<g id="edge5" class="edge">
<title>seleamility&#45;&gt;guitility_py</title><style>.edge>path:hover{stroke-width:8}</style>
<path fill="none" stroke="black" d="M120.27,-113.9C105.17,-105.07 87.91,-91.41 82,-73"/>
</g>
</g>
</svg>
