<?plantuml 1.2026.2?><svg xmlns="http://www.w3.org/2000/svg" xmlns:xlink="http://www.w3.org/1999/xlink" contentStyleType="text/css" data-diagram-type="DESCRIPTION" height="307px" preserveAspectRatio="none" style="width:459px;height:307px;background:#FFFFFF;" version="1.1" viewBox="0 0 459 307" width="459px" zoomAndPan="magnify"><defs/><g><!--entity conftest--><g class="entity" data-qualified-name="conftest" data-source-line="4" id="ent0002"><rect fill="#F1F1F1" height="58.1358" rx="2.5" ry="2.5" style="stroke:#181818;stroke-width:0.5;" width="101.8017" x="26" y="7"/><text fill="#000000" font-family="sans-serif" font-size="14" lengthAdjust="spacing" textLength="53.3678" x="36" y="31.9659">conftest</text><text fill="#000000" font-family="sans-serif" font-size="14" lengthAdjust="spacing" textLength="81.8017" x="36" y="51.0339">1 python file</text></g><!--entity guitility--><g class="entity" data-qualified-name="guitility" data-source-line="5" id="ent0003"><rect fill="#F1F1F1" height="58.1358" rx="2.5" ry="2.5" style="stroke:#181818;stroke-width:0.5;" width="101.8017" x="163" y="7"/><text fill="#000000" font-family="sans-serif" font-size="14" lengthAdjust="spacing" textLength="48.9578" x="173" y="31.9659">guitility</text><text fill="#000000" font-family="sans-serif" font-size="14" lengthAdjust="spacing" textLength="81.8017" x="173" y="51.0339">1 python file</text></g><!--entity netility--><g class="entity" data-qualified-name="netility" data-source-line="6" id="ent0004"><rect fill="#F1F1F1" height="58.1358" rx="2.5" ry="2.5" style="stroke:#181818;stroke-width:0.5;" width="101.8017" x="7" y="125.14"/><text fill="#000000" font-family="sans-serif" font-size="14" lengthAdjust="spacing" textLength="44.6318" x="17" y="150.1059">netility</text><text fill="#000000" font-family="sans-serif" font-size="14" lengthAdjust="spacing" textLength="81.8017" x="17" y="169.1739">1 python file</text></g><!--entity nordility--><g class="entity" data-qualified-name="nordility" data-source-line="7" id="ent0005"><rect fill="#F1F1F1" height="58.1358" rx="2.5" ry="2.5" style="stroke:#181818;stroke-width:0.5;" width="101.8017" x="231" y="243.27"/><text fill="#000000" font-family="sans-serif" font-size="14" lengthAdjust="spacing" textLength="54.5438" x="241" y="268.2359">nordility</text><text fill="#000000" font-family="sans-serif" font-size="14" lengthAdjust="spacing" textLength="81.8017" x="241" y="287.3039">1 python file</text></g><!--entity postility--><g class="entity" data-qualified-name="postility" data-source-line="8" id="ent0006"><rect fill="#F1F1F1" height="58.1358" rx="2.5" ry="2.5" style="stroke:#181818;stroke-width:0.5;" width="101.8017" x="215" y="125.14"/><text fill="#000000" font-family="sans-serif" font-size="14" lengthAdjust="spacing" textLength="51.8698" x="225" y="150.1059">postility</text><text fill="#000000" font-family="sans-serif" font-size="14" lengthAdjust="spacing" textLength="81.8017" x="225" y="169.1739">1 python file</text></g><!--entity seleamility--><g class="entity" data-qualified-name="seleamility" data-source-line="9" id="ent0007"><rect fill="#F1F1F1" height="58.1358" rx="2.5" ry="2.5" style="stroke:#181818;stroke-width:0.5;" width="101.8017" x="352" y="125.14"/><text fill="#000000" font-family="sans-serif" font-size="14" lengthAdjust="spacing" textLength="70.0837" x="362" y="150.1059">seleamility</text><text fill="#000000" font-family="sans-serif" font-size="14" lengthAdjust="spacing" textLength="81.8017" x="362" y="169.1739">1 python file</text></g><!--link guitility to netility--><g class="link" data-entity-1="ent0003" data-entity-2="ent0004" data-link-type="dependency" data-source-line="10" id="lnk8"><path d="M175.74,65.48 C151.56,83.48 125.2224,103.0866 101.0224,121.1066" fill="none" id="guitility-to-netility" style="stroke:#181818;stroke-width:1;"/><polygon fill="#181818" points="96.21,124.69,105.8175,122.5231,100.2203,121.7038,101.0396,116.1066,96.21,124.69" style="stroke:#181818;stroke-width:1;"/></g><!--link guitility to nordility--><g class="link" data-entity-1="ent0003" data-entity-2="ent0005" data-link-type="dependency" data-source-line="11" id="lnk9"><path d="M203.07,65.36 C193.21,95.63 182.38,144.52 197.9,183.27 C207.33,206.81 221.8669,223.6648 239.4469,239.1448" fill="none" id="guitility-to-nordility" style="stroke:#181818;stroke-width:1;"/><polygon fill="#181818" points="243.95,243.11,239.8388,234.1602,240.1974,239.8057,234.552,240.1643,243.95,243.11" style="stroke:#181818;stroke-width:1;"/></g><!--link guitility to postility--><g class="link" data-entity-1="ent0003" data-entity-2="ent0006" data-link-type="dependency" data-source-line="12" id="lnk10"><path d="M226.62,65.48 C234.68,83.48 242.6077,101.194 250.6777,119.214" fill="none" id="guitility-to-postility" style="stroke:#181818;stroke-width:1;"/><polygon fill="#181818" points="253.13,124.69,253.1021,114.8412,251.0864,120.1267,245.8009,118.111,253.13,124.69" style="stroke:#181818;stroke-width:1;"/></g><!--link guitility to seleamility--><g class="link" data-entity-1="ent0003" data-entity-2="ent0007" data-link-type="dependency" data-source-line="13" id="lnk11"><path d="M260.14,65.48 C289.42,83.48 322.0583,103.5283 351.3783,121.5483" fill="none" id="guitility-to-seleamility" style="stroke:#181818;stroke-width:1;"/><polygon fill="#181818" points="356.49,124.69,350.9168,116.5697,352.2302,122.0719,346.7279,123.3853,356.49,124.69" style="stroke:#181818;stroke-width:1;"/></g><!--link seleamility to nordility--><g class="link" data-entity-1="ent0007" data-entity-2="ent0005" data-link-type="dependency" data-source-line="14" id="lnk12"><path d="M373.3,183.62 C354.55,201.61 334.7205,220.6571 315.9405,238.6671" fill="none" id="seleamility-to-nordility" style="stroke:#181818;stroke-width:1;"/><polygon fill="#181818" points="311.61,242.82,320.8744,239.4776,315.2187,239.3592,315.3371,233.7036,311.61,242.82" style="stroke:#181818;stroke-width:1;"/></g><?plantuml-src TOyn3iCW34LtJc5bpz0Bz19Pkr3Y9AXW8t27tBxD46Agibd__OTDGG6o4Kko3YTCDblX3CI4HZY1C3nPX2FCFgCJpsJAozDHZE0ufc-JP98z81m5Isj0KoSO7DCYMEH1DqYxR4om-803s08dq_trxSK7B_i_eK9j4FQ5apLzpdDVEA4s4fV-YWgrKJ2WZLr7OLF_1EDulmx-YUjPRNujRtEzGCtjMny0?></g></svg>
