<?plantuml 1.2026.2?><svg xmlns="http://www.w3.org/2000/svg" xmlns:xlink="http://www.w3.org/1999/xlink" contentStyleType="text/css" data-diagram-type="CLASS" height="81px" preserveAspectRatio="none" style="width:304px;height:81px;background:#FFFFFF;" version="1.1" viewBox="0 0 304 81" width="304px" zoomAndPan="magnify"><defs/><g><!--class postility.LoggingCursor--><g class="entity" data-qualified-name="postility.LoggingCursor" data-source-line="2" id="ent0002"><rect fill="#F1F1F1" height="67.0679" rx="2.5" ry="2.5" style="stroke:#181818;stroke-width:0.5;" width="130.1396" x="7" y="7"/><ellipse cx="22" cy="23" fill="#ADD1B2" rx="11" ry="11" style="stroke:#181818;stroke-width:1;"/><path d="M22.1094,18.5313 Q21.1875,18.5313 20.4531,18.8438 Q19.7344,19.1563 19.2344,19.75 Q18.7344,20.3281 18.4531,21.2031 Q18.1875,22.0781 18.1875,23.1719 Q18.1875,24.6094 18.625,25.6563 Q19.0781,26.7031 19.9219,27.25 Q20.7813,27.7969 22.0938,27.7969 Q22.875,27.7969 23.5625,27.6719 Q24.2656,27.5313 25.2656,27.2188 L25.2656,29.0938 Q24.4063,29.4219 23.6406,29.5469 Q22.8906,29.6719 21.875,29.6719 Q19.9531,29.6719 18.6406,28.875 Q17.3438,28.0625 16.6875,26.5938 Q16.0313,25.1094 16.0313,23.1406 Q16.0313,21.7188 16.4219,20.5469 Q16.8281,19.3594 17.6094,18.4844 Q18.3906,17.6094 19.5313,17.1406 Q20.6719,16.6563 22.1406,16.6563 Q23.0938,16.6563 23.9844,16.8594 Q24.8906,17.0469 25.8281,17.5156 L25,19.2969 Q24.2188,18.9219 23.5625,18.7344 Q22.9063,18.5313 22.1094,18.5313 Z " fill="#000000"/><text fill="#000000" font-family="sans-serif" font-size="14" lengthAdjust="spacing" textLength="98.1396" x="36" y="28.432">LoggingCursor</text><line style="stroke:#181818;stroke-width:0.5;" x1="8" x2="136.1396" y1="39" y2="39"/><line style="stroke:#181818;stroke-width:0.5;" x1="8" x2="136.1396" y1="47" y2="47"/><text fill="#000000" font-family="sans-serif" font-size="14" lengthAdjust="spacing" textLength="115.1916" x="13" y="65.9659">execute(sql, args)</text></g><!--class guitility.ciTerminalGUI--><g class="entity" data-qualified-name="guitility.ciTerminalGUI" data-source-line="5" id="ent0003"><rect fill="#F1F1F1" height="67.0679" rx="2.5" ry="2.5" style="stroke:#181818;stroke-width:0.5;" width="125.7856" x="172.18" y="7"/><ellipse cx="187.18" cy="23" fill="#ADD1B2" rx="11" ry="11" style="stroke:#181818;stroke-width:1;"/><path d="M187.2894,18.5313 Q186.3675,18.5313 185.6331,18.8438 Q184.9144,19.1563 184.4144,19.75 Q183.9144,20.3281 183.6331,21.2031 Q183.3675,22.0781 183.3675,23.1719 Q183.3675,24.6094 183.805,25.6563 Q184.2581,26.7031 185.1019,27.25 Q185.9613,27.7969 187.2738,27.7969 Q188.055,27.7969 188.7425,27.6719 Q189.4456,27.5313 190.4456,27.2188 L190.4456,29.0938 Q189.5863,29.4219 188.8206,29.5469 Q188.0706,29.6719 187.055,29.6719 Q185.1331,29.6719 183.8206,28.875 Q182.5238,28.0625 181.8675,26.5938 Q181.2113,25.1094 181.2113,23.1406 Q181.2113,21.7188 181.6019,20.5469 Q182.0081,19.3594 182.7894,18.4844 Q183.5706,17.6094 184.7113,17.1406 Q185.8519,16.6563 187.3206,16.6563 Q188.2738,16.6563 189.1644,16.8594 Q190.0706,17.0469 191.0081,17.5156 L190.18,19.2969 Q189.3988,18.9219 188.7425,18.7344 Q188.0863,18.5313 187.2894,18.5313 Z " fill="#000000"/><text fill="#000000" font-family="sans-serif" font-size="14" lengthAdjust="spacing" textLength="93.7856" x="201.18" y="28.432">ciTerminalGUI</text><line style="stroke:#181818;stroke-width:0.5;" x1="173.18" x2="296.9656" y1="39" y2="39"/><line style="stroke:#181818;stroke-width:0.5;" x1="173.18" x2="296.9656" y1="47" y2="47"/><text fill="#000000" font-family="sans-serif" font-size="14" lengthAdjust="spacing" textLength="38.8499" x="178.18" y="65.9659">start()</text></g><?plantuml-src LSn12i90343H_PmYT5L1l8IB8hXJ3n2640BJoPXaG2dUNIbsqVNdFwU0YZDvmqmtQcWOQb2rKie5tM6uAhDKFdTpjG7GeQc758dtQTTWIG3qejo3Hd-M8w2n7z9daxBSoMQfMAR7PPMuor_QjLNoG8lnjty1?></g></svg>
