<?plantuml 1.2026.2?><svg xmlns="http://www.w3.org/2000/svg" xmlns:xlink="http://www.w3.org/1999/xlink" contentStyleType="text/css" data-diagram-type="DESCRIPTION" height="823px" preserveAspectRatio="none" style="width:1791px;height:823px;background:#FFFFFF;" version="1.1" viewBox="0 0 1791 823" width="1791px" zoomAndPan="magnify"><title>citegres Repository Architecture</title><defs/><g><g class="title" data-source-line="2"><text fill="#000000" font-family="Monospace" font-size="14" font-weight="bold" lengthAdjust="spacing" textLength="223.8942" x="678.8029" y="24.9659">citegres&#160;Repository&#160;Architecture</text></g><!--entity template--><g class="entity" data-qualified-name="template" data-source-line="6" id="ent0002"><path d="M1104,198.0679 L1104,251.2038 A2.5,2.5 0 0 0 1106.5,253.7038 L1273.3574,253.7038 A2.5,2.5 0 0 0 1275.8574,251.2038 L1275.8574,205.5679 L1265.8574,195.5679 L1106.5,195.5679 A2.5,2.5 0 0 0 1104,198.0679" fill="#E2E8F0" style="stroke:#181818;stroke-width:0.5;"/><path d="M1265.8574,195.5679 L1265.8574,203.0679 A2.5,2.5 0 0 0 1268.3574,205.5679 L1275.8574,205.5679" fill="#E2E8F0" style="stroke:#181818;stroke-width:0.5;"/><text fill="#000000" font-family="Monospace" font-size="14" lengthAdjust="spacing" textLength="137.1855" x="1114" y="220.5339">citegres_template.ini</text><text fill="#000000" font-family="Monospace" font-size="14" lengthAdjust="spacing" textLength="151.8574" x="1114" y="239.6018">tracked&#160;config&#160;contract</text></g><!--entity config--><g class="entity" data-qualified-name="config" data-source-line="7" id="ent0003"><path d="M1080.5,331.5679 L1080.5,384.7038 A2.5,2.5 0 0 0 1083,387.2038 L1297.4012,387.2038 A2.5,2.5 0 0 0 1299.9012,384.7038 L1299.9012,339.0679 L1289.9012,329.0679 L1083,329.0679 A2.5,2.5 0 0 0 1080.5,331.5679" fill="#FCE7F3" style="stroke:#181818;stroke-width:0.5;"/><path d="M1289.9012,329.0679 L1289.9012,336.5679 A2.5,2.5 0 0 0 1292.4012,339.0679 L1299.9012,339.0679" fill="#FCE7F3" style="stroke:#181818;stroke-width:0.5;"/><text fill="#000000" font-family="Monospace" font-size="14" lengthAdjust="spacing" textLength="71.9037" x="1090.5" y="354.0339">citegres.ini</text><text fill="#000000" font-family="Monospace" font-size="14" lengthAdjust="spacing" textLength="199.4012" x="1090.5" y="373.1018">local&#160;credentials&#160;by&#160;DB&#160;section</text></g><!--entity dblp--><g class="entity" data-qualified-name="dblp" data-source-line="8" id="ent0004"><path d="M443,344.0679 C443,334.0679 528.8517,334.0679 528.8517,334.0679 C528.8517,334.0679 614.7034,334.0679 614.7034,344.0679 L614.7034,372.1358 C614.7034,382.1358 528.8517,382.1358 528.8517,382.1358 C528.8517,382.1358 443,382.1358 443,372.1358 L443,344.0679" fill="#FCE7F3" style="stroke:#181818;stroke-width:0.5;"/><path d="M443,344.0679 C443,354.0679 528.8517,354.0679 528.8517,354.0679 C528.8517,354.0679 614.7034,354.0679 614.7034,344.0679" fill="none" style="stroke:#181818;stroke-width:0.5;"/><text fill="#000000" font-family="Monospace" font-size="14" lengthAdjust="spacing" textLength="151.7034" x="453" y="373.0339">DBLP&#160;search&#160;+&#160;XML&#160;API</text></g><!--entity openalex--><g class="entity" data-qualified-name="openalex" data-source-line="9" id="ent0005"><path d="M696,344.0679 C696,334.0679 750.8768,334.0679 750.8768,334.0679 C750.8768,334.0679 805.7537,334.0679 805.7537,344.0679 L805.7537,372.1358 C805.7537,382.1358 750.8768,382.1358 750.8768,382.1358 C750.8768,382.1358 696,382.1358 696,372.1358 L696,344.0679" fill="#FCE7F3" style="stroke:#181818;stroke-width:0.5;"/><path d="M696,344.0679 C696,354.0679 750.8768,354.0679 750.8768,354.0679 C750.8768,354.0679 805.7537,354.0679 805.7537,344.0679" fill="none" style="stroke:#181818;stroke-width:0.5;"/><text fill="#000000" font-family="Monospace" font-size="14" lengthAdjust="spacing" textLength="89.7537" x="706" y="373.0339">OpenAlex&#160;API</text></g><!--entity crossref--><g class="entity" data-qualified-name="crossref" data-source-line="10" id="ent0006"><path d="M904.5,344.0679 C904.5,334.0679 954.9039,334.0679 954.9039,334.0679 C954.9039,334.0679 1005.3077,334.0679 1005.3077,344.0679 L1005.3077,372.1358 C1005.3077,382.1358 954.9039,382.1358 954.9039,382.1358 C954.9039,382.1358 904.5,382.1358 904.5,372.1358 L904.5,344.0679" fill="#FCE7F3" style="stroke:#181818;stroke-width:0.5;"/><path d="M904.5,344.0679 C904.5,354.0679 954.9039,354.0679 954.9039,354.0679 C954.9039,354.0679 1005.3077,354.0679 1005.3077,344.0679" fill="none" style="stroke:#181818;stroke-width:0.5;"/><text fill="#000000" font-family="Monospace" font-size="14" lengthAdjust="spacing" textLength="80.8077" x="914.5" y="373.0339">Crossref&#160;API</text></g><!--entity postgres--><g class="entity" data-qualified-name="postgres" data-source-line="11" id="ent0007"><path d="M708.5,630.5679 C708.5,620.5679 789.0107,620.5679 789.0107,620.5679 C789.0107,620.5679 869.5215,620.5679 869.5215,630.5679 L869.5215,658.6358 C869.5215,668.6358 789.0107,668.6358 789.0107,668.6358 C789.0107,668.6358 708.5,668.6358 708.5,658.6358 L708.5,630.5679" fill="#FCE7F3" style="stroke:#181818;stroke-width:0.5;"/><path d="M708.5,630.5679 C708.5,640.5679 789.0107,640.5679 789.0107,640.5679 C789.0107,640.5679 869.5215,640.5679 869.5215,630.5679" fill="none" style="stroke:#181818;stroke-width:0.5;"/><text fill="#000000" font-family="Monospace" font-size="14" lengthAdjust="spacing" textLength="141.0215" x="718.5" y="659.5339">PostgreSQL&#160;database</text></g><!--entity dataframe--><g class="entity" data-qualified-name="dataframe" data-source-line="12" id="ent0008"><path d="M211.5,320.0679 L252.5,320.0679 A3.75,3.75 0 0 1 255,322.5679 L262,341.0679 L422.6433,341.0679 A2.5,2.5 0 0 1 425.1433,343.5679 L425.1433,393.7038 A2.5,2.5 0 0 1 422.6433,396.2038 L211.5,396.2038 A2.5,2.5 0 0 1 209,393.7038 L209,322.5679 A2.5,2.5 0 0 1 211.5,320.0679" fill="#FCE7F3" style="stroke:#181818;stroke-width:0.5;"/><line style="stroke:#181818;stroke-width:0.5;" x1="209" x2="262" y1="341.0679" y2="341.0679"/><text fill="#000000" font-family="Monospace" font-size="14" lengthAdjust="spacing" textLength="186.1433" x="219" y="363.0339">Enriched&#160;pandas&#160;DataFrame</text><text fill="#000000" font-family="Monospace" font-size="14" lengthAdjust="spacing" textLength="176.3153" x="219" y="382.1018">and&#160;local&#160;__df.pkl&#160;snapshot</text></g><!--entity gui--><g class="entity" data-qualified-name="gui" data-source-line="14" id="ent0009"><rect fill="#DBEAFE" height="77.2038" rx="2.5" ry="2.5" style="stroke:#181818;stroke-width:0.5;" width="179.2494" x="1241.5" y="52.0679"/><text fill="#000000" font-family="Monospace" font-size="14" lengthAdjust="spacing" textLength="68.4597" x="1251.5" y="77.0339">guitility.py</text><text fill="#000000" font-family="Monospace" font-size="14" lengthAdjust="spacing" textLength="93.7856" x="1251.5" y="96.1018">ciTerminalGUI</text><text fill="#000000" font-family="Monospace" font-size="14" lengthAdjust="spacing" textLength="159.2494" x="1251.5" y="115.1697">tkinter&#160;operator&#160;console</text></g><!--entity scrape--><g class="entity" data-qualified-name="scrape" data-source-line="15" id="ent0010"><rect fill="#FEF3C7" height="77.2038" rx="2.5" ry="2.5" style="stroke:#181818;stroke-width:0.5;" width="180.9014" x="585.5" y="186.0679"/><text fill="#000000" font-family="Monospace" font-size="14" lengthAdjust="spacing" textLength="89.5856" x="595.5" y="211.0339">seleamility.py</text><text fill="#000000" font-family="Monospace" font-size="14" lengthAdjust="spacing" textLength="133.1395" x="595.5" y="230.1018">Chrome&#160;automation</text><text fill="#000000" font-family="Monospace" font-size="14" lengthAdjust="spacing" textLength="160.9014" x="595.5" y="249.1697">and&#160;enrichment&#160;pipeline</text></g><!--entity vpn--><g class="entity" data-qualified-name="vpn" data-source-line="16" id="ent0011"><rect fill="#FEF3C7" height="77.2038" rx="2.5" ry="2.5" style="stroke:#181818;stroke-width:0.5;" width="162.0715" x="6" y="52.0679"/><text fill="#000000" font-family="Monospace" font-size="14" lengthAdjust="spacing" textLength="74.0457" x="16" y="77.0339">nordility.py</text><text fill="#000000" font-family="Monospace" font-size="14" lengthAdjust="spacing" textLength="142.0715" x="16" y="96.1018">optional&#160;VPN&#160;rotation</text><text fill="#000000" font-family="Monospace" font-size="14" lengthAdjust="spacing" textLength="136.2755" x="16" y="115.1697">during&#160;scrape&#160;bursts</text></g><!--entity db_layer--><g class="entity" data-qualified-name="db_layer" data-source-line="17" id="ent0012"><rect fill="#DCFCE7" height="77.2038" rx="2.5" ry="2.5" style="stroke:#181818;stroke-width:0.5;" width="208.2293" x="1086" y="453.0679"/><text fill="#000000" font-family="Monospace" font-size="14" lengthAdjust="spacing" textLength="71.3717" x="1096" y="478.0339">postility.py</text><text fill="#000000" font-family="Monospace" font-size="14" lengthAdjust="spacing" textLength="131.6275" x="1096" y="497.1018">config,&#160;connections,</text><text fill="#000000" font-family="Monospace" font-size="14" lengthAdjust="spacing" textLength="188.2293" x="1096" y="516.1697">schema,&#160;import,&#160;and&#160;queries</text></g><!--entity schema--><g class="entity" data-qualified-name="schema" data-source-line="18" id="ent0013"><rect fill="#DCFCE7" height="115.3396" rx="2.5" ry="2.5" style="stroke:#181818;stroke-width:0.5;" width="286.377" x="1089" y="587.0679"/><text fill="#000000" font-family="Monospace" font-size="14" lengthAdjust="spacing" textLength="107.5616" x="1099" y="612.0339">Schema&#160;lifecycle</text><text fill="#000000" font-family="Monospace" font-size="14" lengthAdjust="spacing" textLength="266.377" x="1099" y="631.1018">papers_raw&#160;staging&#160;-&gt;&#160;normalized&#160;tables</text><text fill="#000000" font-family="Monospace" font-size="14" lengthAdjust="spacing" textLength="173.9913" x="1099" y="650.1697">authors,&#160;papers,&#160;concepts,</text><text fill="#000000" font-family="Monospace" font-size="14" lengthAdjust="spacing" textLength="193.2553" x="1099" y="669.2376">openalex,&#160;supports,&#160;citations,</text><text fill="#000000" font-family="Monospace" font-size="14" lengthAdjust="spacing" textLength="103.7956" x="1099" y="688.3055">paper_concepts</text></g><!--entity graph--><g class="entity" data-qualified-name="graph" data-source-line="19" id="ent0014"><rect fill="#E0F2FE" height="77.2038" rx="2.5" ry="2.5" style="stroke:#181818;stroke-width:0.5;" width="189.0353" x="1393.5" y="606.0679"/><text fill="#000000" font-family="Monospace" font-size="14" lengthAdjust="spacing" textLength="64.1337" x="1403.5" y="631.0339">netility.py</text><text fill="#000000" font-family="Monospace" font-size="14" lengthAdjust="spacing" textLength="169.0353" x="1403.5" y="650.1018">NetworkX&#160;graph&#160;building,</text><text fill="#000000" font-family="Monospace" font-size="14" lengthAdjust="spacing" textLength="136.6815" x="1403.5" y="669.1697">metrics,&#160;and&#160;plotting</text></g><!--entity output--><g class="entity" data-qualified-name="output" data-source-line="20" id="ent0015"><rect fill="#E0F2FE" height="58.1358" rx="2.5" ry="2.5" style="stroke:#181818;stroke-width:0.5;" width="149.9615" x="1413" y="759.0679"/><text fill="#000000" font-family="Monospace" font-size="14" lengthAdjust="spacing" textLength="109.8716" x="1423" y="784.0339">GUI&#160;results&#160;pane</text><text fill="#000000" font-family="Monospace" font-size="14" lengthAdjust="spacing" textLength="129.9615" x="1423" y="803.1018">and&#160;graph&#160;windows</text></g><g class="link" data-entity-1="ent0002" data-entity-2="ent0003" data-link-type="dependency" id="lnk16"><polygon fill="#181818" points="1190,328.9045,1194,319.9045,1190,323.9045,1186,319.9045,1190,328.9045" style="stroke:#181818;stroke-width:1;"/><path d="M1190,253.778 C1190,275.9652 1190,300.7293 1190,322.9045" fill="none" style="stroke:#181818;stroke-width:1;"/><text fill="#000000" font-family="Monospace" font-size="13" lengthAdjust="spacing" textLength="114.8161" x="1192" y="296.9649">copy&#160;and&#160;fill&#160;locally</text></g><g class="link" data-entity-1="ent0003" data-entity-2="ent0012" data-link-type="dependency" id="lnk17"><polygon fill="#181818" points="1190,452.9197,1194,443.9197,1190,447.9197,1186,443.9197,1190,452.9197" style="stroke:#181818;stroke-width:1;"/><path d="M1190,387.278 C1190,406.4465 1190,426.0169 1190,446.9197" fill="none" style="stroke:#181818;stroke-width:1;"/><text fill="#000000" font-family="Monospace" font-size="13" lengthAdjust="spacing" textLength="118.9501" x="1192" y="429.9649">selected&#160;DB&#160;section</text></g><g class="link" data-entity-1="ent0012" data-entity-2="ent0007" data-link-type="dependency" id="lnk18"><polygon fill="#181818" points="781.6169,620.5353,783.3419,610.8386,780.4179,615.6812,775.5753,612.7572,781.6169,620.5353" style="stroke:#181818;stroke-width:1;"/><path d="M1085.9008,492.2176 C980.5245,494.3369 827.8656,505.0427 790,548.0679 C772.8018,567.6096 774.8833,593.2761 780.178,614.7103" fill="none" style="stroke:#181818;stroke-width:1;"/><text fill="#000000" font-family="Monospace" font-size="13" lengthAdjust="spacing" textLength="128.3621" x="792" y="563.9649">connect&#160;and&#160;transact</text></g><g class="link" data-entity-1="ent0012" data-entity-2="ent0013" data-link-type="dependency" id="lnk19"><polygon fill="#181818" points="1211.3596,586.8623,1212.4153,577.0702,1209.8304,582.1019,1204.7987,579.5169,1211.3596,586.8623" style="stroke:#181818;stroke-width:1;"/><path d="M1196.8515,530.1551 C1199.3916,542.6219 1202.5133,556.5174 1206,569.0679 C1207.6134,574.8756 1207.6052,575.1751 1209.5245,581.1498" fill="none" style="stroke:#181818;stroke-width:1;"/><text fill="#000000" font-family="Monospace" font-size="13" lengthAdjust="spacing" textLength="134.8751" x="1208" y="563.9649">initialize&#160;and&#160;populate</text></g><g class="link" data-entity-1="ent0009" data-entity-2="ent0010" data-link-type="dependency" id="lnk20"><polygon fill="#181818" points="766.7201,205.2854,776.333,207.4286,771.6216,204.2976,774.7525,199.5862,766.7201,205.2854" style="stroke:#181818;stroke-width:1;"/><path d="M1241.2984,109.6452 C1116.5677,134.7818 897.8735,178.8545 772.6019,204.1001" fill="none" style="stroke:#181818;stroke-width:1;"/><text fill="#000000" font-family="Monospace" font-size="13" lengthAdjust="spacing" textLength="158.9382" x="1045" y="162.9649">DBLP&#160;search,&#160;XML,&#160;extract</text></g><g class="link" data-entity-1="ent0009" data-entity-2="ent0012" data-link-type="dependency" id="lnk21"><polygon fill="#181818" points="1294.1904,457.0727,1303.8179,454.9965,1298.2287,454.1245,1299.1007,448.5353,1294.1904,457.0727" style="stroke:#181818;stroke-width:1;"/><path d="M1331.5684,129.2053 C1332.523,213.1626 1332.9098,410.3385 1316,435.0679 C1310.131,443.651 1307.4644,447.3817 1299.0363,453.5348" fill="none" style="stroke:#181818;stroke-width:1;"/><text fill="#000000" font-family="Monospace" font-size="13" lengthAdjust="spacing" textLength="138.7751" x="1334" y="296.9649">connect,&#160;import,&#160;select</text></g><g class="link" data-entity-1="ent0009" data-entity-2="ent0014" data-link-type="dependency" id="lnk22"><polygon fill="#181818" points="1488,606.025,1492,597.025,1488,601.025,1484,597.025,1488,606.025" style="stroke:#181818;stroke-width:1;"/><path d="M1419.5942,129.2049 C1455.2062,150.7511 1488,181.9035 1488,223.5679 C1488,223.5679 1488,223.5679 1488,492.5679 C1488,531.2355 1488,569.4728 1488,600.025" fill="none" style="stroke:#181818;stroke-width:1;"/><text fill="#000000" font-family="Monospace" font-size="13" lengthAdjust="spacing" textLength="139.6982" x="1490" y="363.4649">build&#160;metrics&#160;and&#160;plots</text></g><g class="link" data-entity-1="ent0009" data-entity-2="ent0015" data-link-type="dependency" id="lnk23"><polygon fill="#181818" points="1563.2537,778.6839,1572.9544,780.3862,1568.105,777.4735,1571.0177,772.6242,1563.2537,778.6839" style="stroke:#181818;stroke-width:1;"/><path d="M1420.6274,109.3593 C1517.7422,131.2717 1659,172.0064 1659,223.5679 C1659,223.5679 1659,223.5679 1659,645.5679 C1659,689.3322 1665.0506,709.2517 1635,741.0679 C1616.271,760.8973 1594.9516,770.7753 1569.0753,777.2315" fill="none" style="stroke:#181818;stroke-width:1;"/><text fill="#000000" font-family="Monospace" font-size="13" lengthAdjust="spacing" textLength="121.5111" x="1661" y="429.9649">display&#160;table&#160;results</text></g><g class="link" data-entity-1="ent0010" data-entity-2="ent0004" data-link-type="dependency" id="lnk24"><polygon fill="#181818" points="521.2037,333.7411,522.997,324.0569,520.0389,328.8787,515.2171,325.9206,521.2037,333.7411" style="stroke:#181818;stroke-width:1;"/><path d="M585.4188,239.8545 C562.3011,248.0445 540.0414,260.9008 526,281.0679 C515.4368,296.2394 515.9265,311.7116 519.806,327.9062" fill="none" style="stroke:#181818;stroke-width:1;"/><text fill="#000000" font-family="Monospace" font-size="13" lengthAdjust="spacing" textLength="195.5852" x="528" y="296.9649">search&#160;results&#160;and&#160;record&#160;pages</text></g><g class="link" data-entity-1="ent0010" data-entity-2="ent0005" data-link-type="dependency" id="lnk25"><polygon fill="#181818" points="747.3115,333.9848,749.4292,324.3663,746.3108,329.086,741.5911,325.9676,747.3115,333.9848" style="stroke:#181818;stroke-width:1;"/><path d="M716.4831,263.3704 C721.1438,268.9821 725.4787,274.9473 729,281.0679 C738.4528,297.4987 742.9063,312.4212 746.1106,328.1062" fill="none" style="stroke:#181818;stroke-width:1;"/><text fill="#000000" font-family="Monospace" font-size="13" lengthAdjust="spacing" textLength="177.2291" x="741" y="296.9649">work&#160;metadata&#160;and&#160;concepts</text></g><g class="link" data-entity-1="ent0010" data-entity-2="ent0006" data-link-type="dependency" id="lnk26"><polygon fill="#181818" points="951.3892,333.763,953.299,324.1011,950.2831,328.8869,945.4973,325.871,951.3892,333.763" style="stroke:#181818;stroke-width:1;"/><path d="M766.7941,236.9475 C827.4256,246.1891 900.2464,260.986 924,281.0679 C939.6702,294.3159 946.1926,310.8554 950.0618,327.9117" fill="none" style="stroke:#181818;stroke-width:1;"/><text fill="#000000" font-family="Monospace" font-size="13" lengthAdjust="spacing" textLength="208.7152" x="943" y="296.9649">publisher&#160;and&#160;reference&#160;metadata</text></g><g class="link" data-entity-1="ent0011" data-entity-2="ent0010" data-link-type="dependency" id="lnk27"><polygon fill="#181818" points="585.4236,203.269,577.5162,197.3976,580.5446,202.1755,575.7667,205.204,585.4236,203.269" style="stroke:#181818;stroke-width:1;"/><path d="M168.2795,109.7834 C277.6288,134.2895 465.6539,176.4275 579.5688,201.9569" fill="none" style="stroke:#181818;stroke-width:1;"/><text fill="#000000" font-family="Monospace" font-size="13" lengthAdjust="spacing" textLength="209.6642" x="419" y="162.9649">rotate&#160;endpoints&#160;between&#160;batches</text></g><g class="link" data-entity-1="ent0010" data-entity-2="ent0008" data-link-type="dependency" id="lnk28"><polygon fill="#181818" points="328.2208,319.8465,335.4642,313.1731,330.2052,315.2571,328.1213,309.9981,328.2208,319.8465" style="stroke:#181818;stroke-width:1;"/><path d="M585.1476,245.909 C556.6912,251.8994 525.1157,258.1573 496,263.0679 C465.287,268.248 382.5731,263.2876 357,281.0679 C343.6561,290.3456 336.805,299.9936 330.6021,314.3392" fill="none" style="stroke:#181818;stroke-width:1;"/><text fill="#000000" font-family="Monospace" font-size="13" lengthAdjust="spacing" textLength="154.3491" x="359" y="296.9649">build&#160;import-ready&#160;frame</text></g><g class="link" data-entity-1="ent0009" data-entity-2="ent0008" data-link-type="dependency" id="lnk29"><polygon fill="#181818" points="322.6599,320.046,328.4004,312.0431,323.6729,315.1497,320.5664,310.4222,322.6599,320.046" style="stroke:#181818;stroke-width:1;"/><path d="M1241.3783,91.1484 C1036.2695,91.6818 539.5819,101.8944 399,186.0679 C351.6846,214.398 332.397,272.9858 323.8756,314.1705" fill="none" style="stroke:#181818;stroke-width:1;"/><text fill="#000000" font-family="Monospace" font-size="13" lengthAdjust="spacing" textLength="173.0172" x="401" y="229.9649">retain&#160;current&#160;search&#160;results</text></g><g class="link" data-entity-1="ent0008" data-entity-2="ent0012" data-link-type="dependency" id="lnk30"><polygon fill="#181818" points="1085.9675,483.5818,1077.2984,478.9078,1080.9821,483.2009,1076.6889,486.8845,1085.9675,483.5818" style="stroke:#181818;stroke-width:1;"/><path d="M425.1774,394.0397 C428.1414,394.7524 431.0863,395.4307 434,396.0679 C663.8447,446.3377 933.2857,471.9158 1079.985,483.1247" fill="none" style="stroke:#181818;stroke-width:1;"/><text fill="#000000" font-family="Monospace" font-size="13" lengthAdjust="spacing" textLength="87.9191" x="642" y="429.9649">importXML(df)</text></g><g class="link" data-entity-1="ent0012" data-entity-2="ent0015" data-link-type="dependency" id="lnk31"><polygon fill="#181818" points="1412.7445,786.8111,1403.812,782.6625,1407.7452,786.7282,1403.6794,790.6614,1412.7445,786.8111" style="stroke:#181818;stroke-width:1;"/><path d="M1085.6998,505.218 C1034.2864,517.3044 976.6593,540.9238 945,587.0679 C916.0843,629.2132 911.771,663.2326 945,702.0679 C1004.3209,771.3972 1272.0648,784.479 1406.7453,786.7117" fill="none" style="stroke:#181818;stroke-width:1;"/><text fill="#000000" font-family="Monospace" font-size="13" lengthAdjust="spacing" textLength="131.0921" x="947" y="649.9649">resolved&#160;query&#160;tables</text></g><g class="link" data-entity-1="ent0012" data-entity-2="ent0014" data-link-type="dependency" id="lnk32"><polygon fill="#181818" points="1421.8331,605.9232,1416.2566,597.8052,1417.5722,603.3069,1412.0705,604.6226,1421.8331,605.9232" style="stroke:#181818;stroke-width:1;"/><path d="M1294.0652,523.7019 C1311.2877,530.6312 1328.5489,538.7442 1344,548.0679 C1355.8516,555.2195 1355.9465,560.7358 1367,569.0679 C1384.1386,581.987 1398.49,591.5899 1416.7201,602.7837" fill="none" style="stroke:#181818;stroke-width:1;"/><text fill="#000000" font-family="Monospace" font-size="13" lengthAdjust="spacing" textLength="103.4151" x="1369" y="563.9649">citation&#160;edgelists</text></g><g class="link" data-entity-1="ent0014" data-entity-2="ent0015" data-link-type="dependency" id="lnk33"><polygon fill="#181818" points="1488,758.7773,1492,749.7773,1488,753.7773,1484,749.7773,1488,758.7773" style="stroke:#181818;stroke-width:1;"/><path d="M1488,683.1158 C1488,706.8596 1488,731.0556 1488,752.7773" fill="none" style="stroke:#181818;stroke-width:1;"/><text fill="#000000" font-family="Monospace" font-size="13" lengthAdjust="spacing" textLength="139.6331" x="1490" y="735.9649">metric&#160;tables&#160;and&#160;plots</text></g><?plantuml-src RLHDRzms4BthLqozbnPT6q5oIA530Ni_YW2EwpPjaOE1nQmqqXAcI9P3nL5_VOUafDKcFks2cdcSUU_n_U0yjXs2ni7s0RYZW0QBe88cg5IWrXF3d-Gigs3z0BU-Eibn5NfF1Jyhuz1Z1tp2shueqqA3cfTVQcgmrs5lJNZ0Zk2ZDPOTLbGKZP9BhgPR3e4wfp7GZJBgoGIFrJFLK5dJg3R-n9Dm1SWmLS9gztRto_xDDqWPGDiADLIUQZ91oLHm761x1op3AsiIq0Y-sczsx_VlYXe37f45Qdjt_oYLADl2p_3vuptSFdv8BVLHkrSQVdTaRZLzdUki760y-BvsuospfsQkhQQ3xsiVBGVPwTCVzp0TfXQNptbkQQokoSFLpdXLdOGuXwQMmgrqxKK8UZ9o09cLmw5kRjop1ZRe-6GphV629fREe8KNij2qaTssLq5f5OORDpoPIlr5lbEoucz_Vn2rHEyWrylM7iKeaLcsEiygdR3Qtkrkzxib89CcxCwGcvEtSZVsmNOO9SeJKrge4n71AKTQcOpAbKSNHztjtstUBu6DzVKPrhg89Kl_y_W0teOHkkvzjEk8Skmz1qwuNvnv3JGIlbW_6MSTrpJPJxn-CYp4TxW6rJdhmnhY-F_sv1Nnw9s3F3IXQRNTH8QN-9zIBsZLK3LKMkHoCfZdWySNu81jdFRwLv3bEjJgFr5OxA29XQK-dApdDUIED5L5BiIH9XkkWNiNfugVLIOXVayjXwbX93PDyigCXXOKF51uiVxvCxJ2u4aOLBgM6GLJGaGauxo_qpO4ESzEIAMhtPlzsqilY8b0t2n1mT6uerbpkSIAP4kUJKBAIKvD2CMS1DT2pVYQI_dZXdIvv8BEbjT3CNwEbRCG9KGNLa7OF4T3CN-EjVDBAoUr4xIaaM49fClYaRiI989Yw8XEcGNh-ZXdKSJ7a2kJyKfOHCqw9iqQw6kAkhbqCUqumTbYUVovD3DMPZLW56BMWUUwaSSIQiL2u92zD4bG5EDq-NO9l78Amqca22dwoKiJlLhYPSSSVIL4XyGnC6PBQfgijcoOywy4rn-rufCicszeo9Cqp1X5V9uN_AKdJH8JjRCIGXBpOamY0qSCeiR5HUU4coZAF5vxmdg0zEbC-wBOo_NAGDLx7uFeaeoYE9T-erU65rL_h9kVBgqoIo0eLd-X71MZ4dnPEyawlLoWkfKavAXe-dG1c6KVWSxY_my0?></g></svg>