<?plantuml 1.2026.2?><svg xmlns="http://www.w3.org/2000/svg" xmlns:xlink="http://www.w3.org/1999/xlink" contentStyleType="text/css" data-diagram-type="DESCRIPTION" height="695px" preserveAspectRatio="none" style="width:551px;height:695px;background:#FFFFFF;" version="1.1" viewBox="0 0 551 695" width="551px" zoomAndPan="magnify"><title>citegres Tooling Integrations</title><defs/><g><g class="title" data-source-line="1"><text fill="#000000" font-family="Monospace" font-size="14" font-weight="bold" lengthAdjust="spacing" textLength="201.6658" x="168.0566" y="24.9659">citegres&#160;Tooling&#160;Integrations</text></g><!--entity source_github_workflows_ci_yml--><g class="entity" data-qualified-name="source_github_workflows_ci_yml" data-source-line="7" id="ent0002"><rect fill="#E0F2FE" height="39.0679" rx="2.5" ry="2.5" style="stroke:#181818;stroke-width:0.5;" width="301.8189" x="7" y="344.5146"/><text fill="#000000" font-family="Monospace" font-size="14" lengthAdjust="spacing" textLength="281.8189" x="17" y="369.4805">.github/workflows/ci.yml\n8&#160;detected&#160;tools</text></g><!--entity tool_actions_checkout--><g class="entity" data-qualified-name="tool_actions_checkout" data-source-line="8" id="ent0003"><path d="M392.4321,53.8803 C396.2839,47.7213 401.0265,47.8618 404.756,54.0028 C408.0617,47.2399 413.0634,48.4888 417.102,53.2153 C421.7223,46.0679 425.9829,46.1928 430.6239,53.1956 C434.8987,46.9122 438.7313,47.9002 442.8273,53.3812 C446.1588,48.6952 451.3724,48.8489 454.1526,54.0149 C456.8508,48.3572 463.1173,47.8653 466.6945,52.9928 C470.7741,46.9554 476.0719,47.015 480.445,52.6469 C485.6196,47.2114 490.3812,47.7115 493.2316,54.9852 C496.2026,48.8612 501.6829,48.9453 504.7215,54.921 C508.6903,49.0874 513.0744,49.8445 517.0844,54.874 C526.7657,57.2837 528.0759,63.4434 523.0782,71.2317 C528.5231,79.6889 527.058,84.7921 517.1147,87.6652 C514.8671,93.3365 509.5073,93.8078 506.3314,88.584 C502.7444,95.0942 496.5823,95.6835 491.9911,89.7403 C489.2576,95.6427 485.2871,97.2581 480.0571,92.5475 C476.7762,99.0514 472.2801,98.8755 468.2001,93.334 C465.6717,100.7731 459.1543,101.2401 455.146,94.7178 C450.2427,101.1156 444.7836,99.0399 442.2965,92.3462 C438.3606,99.1242 432.4389,98.9687 428.8681,91.9898 C424.3334,97.5081 419.6451,96.0295 416.9715,90.0621 C413.0943,95.1797 407.7353,94.8018 405.1914,88.6665 C400.7305,94.1295 394.5086,94.8653 391.2471,87.3753 C384.1491,83.3238 382.7477,75.3409 391.3287,71.3694 C383.0864,65.3412 384.0335,58.8586 392.4321,53.8803" fill="#FEF3C7" style="stroke:#181818;stroke-width:0.5;"/><text fill="#000000" font-family="Monospace" font-size="14" lengthAdjust="spacing" textLength="111.9156" x="398" y="75.4805">actions/checkout</text></g><!--entity tool_actions_setup_python--><g class="entity" data-qualified-name="tool_actions_setup_python" data-source-line="9" id="ent0004"><path d="M378.0691,139.0653 C380.2816,133.0104 384.4952,132.9487 388.3139,137.5162 C393.1776,132.1865 397.5169,132.8353 400.9097,139.1123 C402.8057,134.523 407.6036,132.6687 411.0596,137.4164 C414.4191,131.1239 418.0266,131.2305 422.0951,136.7543 C425.6753,131.2677 429.413,132.166 432.8627,136.8919 C436.7014,132.5503 440.3398,132.8787 443.116,138.0385 C446.2914,132.2339 451.3479,130.5811 456.0898,136.2702 C459.1356,131.2994 462.074,131.358 465.195,136.2005 C469.5281,130.4578 473.8561,131.0985 477.5853,136.8515 C481.628,131.9141 485.4971,132.5779 488.5586,137.9009 C491.3271,132.528 496.0905,133.2043 499.1999,137.5267 C502.2503,131.8827 507.0518,132.5978 509.7825,137.8376 C514.0074,132.1954 517.8072,132.8788 521.8437,138.0476 C525.6354,132.7773 530.0872,133.0907 533.2876,138.6712 C542.4326,141.3725 544.2641,149.3956 537.744,156.1019 C544.7789,164.1975 542.3316,170.7354 531.7414,172.2994 C528.2594,177.8902 524.481,177.8178 521.2967,172.0262 C519.2518,177.902 514.3128,177.5255 510.8459,173.5319 C508.099,179.3945 503.4712,179.5459 499.5738,174.7485 C496.4527,180.8644 490.7031,180.5999 487.6338,174.6971 C485.2105,180.2628 481.9816,179.6416 478.0833,176.2741 C474.9292,181.4071 470.3685,182.0431 466.8569,176.6555 C464.4821,182.0373 458.8219,182.5113 455.4729,177.7488 C451.8916,183.7723 447.3483,183.4457 443.661,177.8565 C440.0863,182.4354 434.8935,183.1241 432.1966,176.923 C428.5468,181.4066 424.2418,179.8954 422.4953,174.9623 C418.0432,178.9929 414.3124,178.6572 411.1581,173.3813 C407.0218,179.4902 403.1078,178.1863 399.2284,173.1073 C397.001,177.5332 392.3723,177.3996 389.7188,173.5998 C385.9447,179.2753 380.3649,178.6616 377.8662,172.3398 C368.1293,171.054 364.5589,163.8861 369.1311,155.2756 C364.1685,146.3595 366.6967,138.9746 378.0691,139.0653" fill="#FEF3C7" style="stroke:#181818;stroke-width:0.5;"/><text fill="#000000" font-family="Monospace" font-size="14" lengthAdjust="spacing" textLength="140.2795" x="383.82" y="159.4805">actions/setup-python</text></g><!--entity tool_black--><g class="entity" data-qualified-name="tool_black" data-source-line="10" id="ent0005"><path d="M430.4412,223.1298 C432.463,216.6355 438.5075,216.1158 442.6373,220.8377 C446.5081,214.2128 450.8347,214.0673 455.2624,220.2905 C459.672,214.7962 463.5221,215.0128 467.0459,221.1853 C471.291,215.427 477.0844,215.4704 479.9393,222.5784 C487.9322,226.4399 488.6531,232.9414 482.1301,238.7673 C488.6422,244.8849 487.761,252.6955 479.1117,256.1859 C477.3848,262.423 472.1259,264.9272 466.775,260.3016 C465.7792,266.5594 460.467,267.6661 456.1139,263.8573 C449.5692,269.3441 444.1535,267.4667 442.6011,259.017 C436.8056,264.9176 432.0028,263.5293 429.8737,255.6345 C419.2535,253.7595 417.7682,247.6424 423.7649,239.4827 C417.8482,231.1567 421.6406,225.4473 430.4412,223.1298" fill="#FEF3C7" style="stroke:#181818;stroke-width:0.5;"/><text fill="#000000" font-family="Monospace" font-size="14" lengthAdjust="spacing" textLength="34.2719" x="436.82" y="243.4805">black</text></g><!--entity tool_ls_files--><g class="entity" data-qualified-name="tool_ls_files" data-source-line="11" id="ent0006"><path d="M426.4503,307.6359 C430.8306,299.3381 436.2905,299.7559 441.4962,306.8277 C445.2125,299.8637 449.704,299.6398 455.3249,304.6234 C460.0272,299.5143 464.0813,298.2674 468.1922,305.2526 C473.1371,298.9479 480.0734,299.1121 482.7253,307.5179 C492.9817,306.913 495.3931,315.2235 491.3257,322.7213 C497.6872,332.3018 494.6878,338.3535 483.7672,340.6467 C479.8028,348.9516 472.7387,347.6661 468.5755,340.8464 C464.976,348.2826 460.1304,348.4108 454.5817,342.9636 C449.9505,349.3842 445.8955,348.2678 442.1683,342.0741 C436.0855,347.4188 431.2993,345.9698 428.1145,338.8157 C420.8142,334.5629 419.6542,328.876 425.9792,322.8059 C418.1448,317.6688 418.8665,312.2941 426.4503,307.6359" fill="#FEF3C7" style="stroke:#181818;stroke-width:0.5;"/><text fill="#000000" font-family="Monospace" font-size="14" lengthAdjust="spacing" textLength="41.4678" x="433.22" y="327.4805">ls-files</text></g><!--entity tool_pip--><g class="entity" data-qualified-name="tool_pip" data-source-line="12" id="ent0007"><path d="M437.8312,389.5833 C442.1755,381.9554 449.6407,380.4928 455.0951,388.3452 C462.5031,380.2314 468.6118,382.1788 472.9005,391.526 C482.2719,392.7781 486.3319,397.6707 481.497,406.8778 C487.5878,416.6046 481.9144,423.0287 472.0261,423.8263 C469.1161,433.8019 463.4252,436.1692 455.0433,429.3641 C446.7273,436.4763 438.9126,432.5732 436.9246,422.6384 C429.112,418.3597 426.68,413.7375 434.1887,406.8106 C427.1208,399.5925 428.0057,393.2294 437.8312,389.5833" fill="#FEF3C7" style="stroke:#181818;stroke-width:0.5;"/><text fill="#000000" font-family="Monospace" font-size="14" lengthAdjust="spacing" textLength="20.8319" x="443.54" y="411.4805">pip</text></g><!--entity tool_pylint--><g class="entity" data-qualified-name="tool_pylint" data-source-line="13" id="ent0008"><path d="M430.6773,474.3812 C433.9313,467.8288 439.535,467.3579 443.1782,474.0129 C446.7769,468.6635 452.0736,468.3831 456.0505,473.5498 C458.8585,468.0843 463.8341,467.2512 467.1002,473.1026 C471.5887,467.5819 477.4179,468.2363 480.0685,475.037 C491.3988,475.2009 496.264,480.962 490.85,491.8582 C493.8119,502.0705 491.2422,507.7571 479.6059,507.4248 C478.5897,514.4411 472.7169,514.6479 468.415,510.8135 C467.0254,517.7806 461.7127,520.1703 455.9881,515.4051 C450.1438,520.5716 444.77,518.6892 442.6717,511.4002 C437.4593,516.1983 433.0647,514.6503 430.6758,508.3488 C420.4293,507.236 417.363,499.1504 424.43,491.5865 C417.1242,483.7945 421.0074,476.0092 430.6773,474.3812" fill="#FEF3C7" style="stroke:#181818;stroke-width:0.5;"/><text fill="#000000" font-family="Monospace" font-size="14" lengthAdjust="spacing" textLength="36.6799" x="435.62" y="495.4805">pylint</text></g><!--entity tool_pytest--><g class="entity" data-qualified-name="tool_pytest" data-source-line="14" id="ent0009"><path d="M428.0793,558.9999 C430.7945,552.1216 437.8522,550.5182 442.5173,556.8723 C445.7465,551.083 451.4345,550.842 455.372,556.0439 C459.3987,550.2735 465.2601,551.3538 467.6494,557.7027 C473.3368,550.3591 478.4561,549.9735 483.034,558.7608 C494.8175,559.092 498.2519,566.0104 491.6909,575.7108 C497.2147,585.2813 493.365,592.4616 481.9891,591.9123 C480.2827,599.5537 475.459,601.3628 469.6381,595.745 C467.8112,603.3444 461.455,606.4682 454.7865,601.439 C449.6018,605.6607 442.9624,604.421 442.325,596.6959 C435.2272,602.6548 428.663,599.9988 428.1406,590.6164 C420.0331,587.823 416.5982,582.1703 422.9368,574.6644 C415.938,567.2057 420.1114,561.5452 428.0793,558.9999" fill="#FEF3C7" style="stroke:#181818;stroke-width:0.5;"/><text fill="#000000" font-family="Monospace" font-size="14" lengthAdjust="spacing" textLength="40.4599" x="433.73" y="579.4805">pytest</text></g><!--entity tool_tee--><g class="entity" data-qualified-name="tool_tee" data-source-line="15" id="ent0010"><path d="M437.8312,641.5833 C442.1774,633.9524 449.6457,632.4894 455.1021,640.3452 C462.5124,632.2278 468.6235,634.1756 472.9145,643.526 C482.2859,644.7781 486.3459,649.6707 481.511,658.8778 C487.6018,668.6046 481.9284,675.0287 472.0401,675.8263 C469.1278,685.8052 463.4345,688.1728 455.0503,681.3641 C446.7324,688.4798 438.9146,684.5763 436.9246,674.6384 C429.112,670.3597 426.68,665.7375 434.1887,658.8106 C427.1208,651.5925 428.0057,645.2294 437.8312,641.5833" fill="#FEF3C7" style="stroke:#181818;stroke-width:0.5;"/><text fill="#000000" font-family="Monospace" font-size="14" lengthAdjust="spacing" textLength="20.8459" x="443.54" y="663.4805">tee</text></g><g class="entity" data-qualified-name="toolingGraphSummary" data-source-line="25" id="ent0019"><path d="M57.27,264.3446 L57.27,309.7566 L258.5542,309.7566 L258.5542,274.3446 L248.5542,264.3446 L57.27,264.3446" fill="#FEFFDD" style="stroke:#181818;stroke-width:0.5;"/><path d="M248.5542,264.3446 L248.5542,274.3446 L258.5542,274.3446 L248.5542,264.3446" fill="#FEFFDD" style="stroke:#181818;stroke-width:1;"/><text fill="#000000" font-family="Monospace" font-size="13" lengthAdjust="spacing" textLength="180.2842" x="63.27" y="283.2416">Scanned&#160;1&#160;tooling&#160;entrypoint.</text><text fill="#000000" font-family="Monospace" font-size="13" lengthAdjust="spacing" textLength="171.7822" x="63.27" y="300.9476">Detected&#160;8&#160;third-party&#160;tools.</text></g><!--link source_github_workflows_ci_yml to tool_actions_checkout--><g class="link" data-entity-1="ent0002" data-entity-2="ent0003" data-link-type="dependency" data-source-line="16" id="lnk11"><path d="M275.1,344.3046 C275.1,278.3846 275.1,70.0546 275.1,70.0546 C275.1,70.0546 326.88,70.0546 376.75,70.0546" fill="none" id="source_github_workflows_ci_yml-to-tool_actions_checkout" style="stroke:#181818;stroke-width:1;"/><polygon fill="#181818" points="382.75,70.0546,373.75,66.0546,377.75,70.0546,373.75,74.0546,382.75,70.0546" style="stroke:#181818;stroke-width:1;"/></g><!--link source_github_workflows_ci_yml to tool_actions_setup_python--><g class="link" data-entity-1="ent0002" data-entity-2="ent0004" data-link-type="dependency" data-source-line="17" id="lnk12"><path d="M309.19,353.5746 C354.84,353.5746 393.1,353.5746 393.1,353.5746 C393.1,353.5746 393.1,238.4046 393.1,184.9146" fill="none" id="source_github_workflows_ci_yml-to-tool_actions_setup_python" style="stroke:#181818;stroke-width:1;"/><polygon fill="#181818" points="393.1,178.9146,389.1,187.9146,393.1,183.9146,397.1,187.9146,393.1,178.9146" style="stroke:#181818;stroke-width:1;"/></g><!--link source_github_workflows_ci_yml to tool_black--><g class="link" data-entity-1="ent0002" data-entity-2="ent0005" data-link-type="dependency" data-source-line="18" id="lnk13"><path d="M292.1,344.0846 C292.1,308.5546 292.1,238.0546 292.1,238.0546 C292.1,238.0546 368.36,238.0546 415.59,238.0546" fill="none" id="source_github_workflows_ci_yml-to-tool_black" style="stroke:#181818;stroke-width:1;"/><polygon fill="#181818" points="421.59,238.0546,412.59,234.0546,416.59,238.0546,412.59,242.0546,421.59,238.0546" style="stroke:#181818;stroke-width:1;"/></g><!--link source_github_workflows_ci_yml to tool_ls_files--><g class="link" data-entity-1="ent0002" data-entity-2="ent0006" data-link-type="dependency" data-source-line="19" id="lnk14"><path d="M309.25,360.5546 C370.08,360.5546 426.1,360.5546 426.1,360.5546 C426.1,360.5546 426.1,360.2046 426.1,352.6546" fill="none" id="source_github_workflows_ci_yml-to-tool_ls_files" style="stroke:#181818;stroke-width:1;"/><polygon fill="#181818" points="426.1,346.6546,422.1,355.6546,426.1,351.6546,430.1,355.6546,426.1,346.6546" style="stroke:#181818;stroke-width:1;"/></g><!--link source_github_workflows_ci_yml to tool_pip--><g class="link" data-entity-1="ent0002" data-entity-2="ent0007" data-link-type="dependency" data-source-line="20" id="lnk15"><path d="M309.04,367.5446 C382.06,367.5446 454.1,367.5446 454.1,367.5446 C454.1,367.5446 454.1,367.8946 454.1,375.4446" fill="none" id="source_github_workflows_ci_yml-to-tool_pip" style="stroke:#181818;stroke-width:1;"/><polygon fill="#181818" points="454.1,381.4446,458.1,372.4446,454.1,376.4446,450.1,372.4446,454.1,381.4446" style="stroke:#181818;stroke-width:1;"/></g><!--link source_github_workflows_ci_yml to tool_pylint--><g class="link" data-entity-1="ent0002" data-entity-2="ent0008" data-link-type="dependency" data-source-line="21" id="lnk16"><path d="M309.1,374.5346 C368.65,374.5346 423.1,374.5346 423.1,374.5346 C423.1,374.5346 423.1,425.3246 423.1,459.2646" fill="none" id="source_github_workflows_ci_yml-to-tool_pylint" style="stroke:#181818;stroke-width:1;"/><polygon fill="#181818" points="423.1,465.2646,427.1,456.2646,423.1,460.2646,419.1,456.2646,423.1,465.2646" style="stroke:#181818;stroke-width:1;"/></g><!--link source_github_workflows_ci_yml to tool_pytest--><g class="link" data-entity-1="ent0002" data-entity-2="ent0009" data-link-type="dependency" data-source-line="22" id="lnk17"><path d="M208.1,383.8046 C208.1,436.0846 208.1,574.0546 208.1,574.0546 C208.1,574.0546 344.38,574.0546 412.47,574.0546" fill="none" id="source_github_workflows_ci_yml-to-tool_pytest" style="stroke:#181818;stroke-width:1;"/><polygon fill="#181818" points="418.47,574.0546,409.47,570.0546,413.47,574.0546,409.47,578.0546,418.47,574.0546" style="stroke:#181818;stroke-width:1;"/></g><!--link source_github_workflows_ci_yml to tool_tee--><g class="link" data-entity-1="ent0002" data-entity-2="ent0010" data-link-type="dependency" data-source-line="23" id="lnk18"><path d="M108.1,383.7946 C108.1,449.7146 108.1,658.0546 108.1,658.0546 C108.1,658.0546 342.09,658.0546 422.25,658.0546" fill="none" id="source_github_workflows_ci_yml-to-tool_tee" style="stroke:#181818;stroke-width:1;"/><polygon fill="#181818" points="428.25,658.0546,419.25,654.0546,423.25,658.0546,419.25,662.0546,428.25,658.0546" style="stroke:#181818;stroke-width:1;"/></g><?plantuml-src bPDFJyCm3CNl_HJME7VyEy292wo80rp64QaAgTj6I-CeSJNrs-DsT2iT4kNelDzpd1UP3Li4RHYhW17UYQnn5Rou_a2n8HSJYoK34mHJrGo52QXx8OaxuxmAge5OguBslR5KDk94AR1KhUMC7B-f1k6L74Mlz9JHr7Xow7ZBdGpJjrUkibD4XaBkF085hYav8h1QLuRhzlDoJs5NMjh7IstMNMC_FjoztCv2OY7JauqhK14YjK5ZVd3bHrUkJIukkDXSPJVP9j6MsW9MQdYfzAnHxwZbeKNVBFzMyb61YsoJtJxUpPqHkVMfxsHiT-uUrFoWpZjyMgLt9yjGpXaRqz9OZ2VCndmucPFU-1CanPdUISQJzntgSuen_g3wUaunuWcHugZ_4NwQFlmUxh-DqrmNcuU45zDZq8iD4lfoTaZ_7tZ_3Ojn-PB44UFuHxAupq7vUjisZGfTijNAETcQwr45MSxGUPAPridJk5JtmBK9HIehojrXnTO9kWBwtby0?></g></svg>