<?plantuml 1.2026.2?><svg xmlns="http://www.w3.org/2000/svg" xmlns:xlink="http://www.w3.org/1999/xlink" contentStyleType="text/css" data-diagram-type="DESCRIPTION" height="779px" preserveAspectRatio="none" style="width:450px;height:779px;background:#FFFFFF;" version="1.1" viewBox="0 0 450 779" width="450px" zoomAndPan="magnify"><title>citegres Tooling Integrations</title><defs/><g><g class="title" data-source-line="1"><text fill="#000000" font-family="Monospace" font-size="14" font-weight="bold" lengthAdjust="spacing" textLength="201.6658" x="117.2866" y="24.9659">citegres&#160;Tooling&#160;Integrations</text></g><!--entity source_github_workflows_ci_yml--><g class="entity" data-qualified-name="source_github_workflows_ci_yml" data-source-line="7" id="ent0002"><rect fill="#E0F2FE" height="58.1358" rx="2.5" ry="2.5" style="stroke:#181818;stroke-width:0.5;" width="182.6234" x="15.33" y="376.9846"/><text fill="#000000" font-family="Monospace" font-size="14" lengthAdjust="spacing" textLength="162.6234" x="25.33" y="401.9505">.github/workflows/ci.yml</text><text fill="#000000" font-family="Monospace" font-size="14" lengthAdjust="spacing" textLength="105.3356" x="25.33" y="421.0184">9&#160;detected&#160;tools</text></g><!--entity tool_actions_checkout--><g class="entity" data-qualified-name="tool_actions_checkout" data-source-line="8" id="ent0003"><path d="M290.9021,53.8803 C294.7539,47.7213 299.4965,47.8618 303.226,54.0028 C306.5317,47.2399 311.5334,48.4888 315.572,53.2153 C320.1923,46.0679 324.4529,46.1928 329.0939,53.1956 C333.3687,46.9122 337.2013,47.9002 341.2973,53.3812 C344.6288,48.6952 349.8424,48.8489 352.6226,54.0149 C355.3208,48.3572 361.5873,47.8653 365.1645,52.9928 C369.2441,46.9554 374.5419,47.015 378.915,52.6469 C384.0896,47.2114 388.8512,47.7115 391.7016,54.9852 C394.6726,48.8612 400.1529,48.9453 403.1915,54.921 C407.1603,49.0874 411.5444,49.8445 415.5544,54.874 C425.2357,57.2837 426.5459,63.4434 421.5482,71.2317 C426.9931,79.6889 425.528,84.7921 415.5847,87.6652 C413.3371,93.3365 407.9773,93.8078 404.8014,88.584 C401.2144,95.0942 395.0523,95.6835 390.4611,89.7403 C387.7276,95.6427 383.7571,97.2581 378.5271,92.5475 C375.2462,99.0514 370.7501,98.8755 366.6701,93.334 C364.1417,100.7731 357.6243,101.2401 353.616,94.7178 C348.7127,101.1156 343.2536,99.0399 340.7665,92.3462 C336.8306,99.1242 330.9089,98.9687 327.3381,91.9898 C322.8034,97.5081 318.1151,96.0295 315.4415,90.0621 C311.5643,95.1797 306.2053,94.8018 303.6614,88.6665 C299.2005,94.1295 292.9786,94.8653 289.7171,87.3753 C282.6191,83.3238 281.2177,75.3409 289.7987,71.3694 C281.5564,65.3412 282.5035,58.8586 290.9021,53.8803" fill="#FEF3C7" style="stroke:#181818;stroke-width:0.5;"/><text fill="#000000" font-family="Monospace" font-size="14" lengthAdjust="spacing" textLength="111.9156" x="296.47" y="75.4805">actions/checkout</text></g><!--entity tool_actions_setup_python--><g class="entity" data-qualified-name="tool_actions_setup_python" data-source-line="9" id="ent0004"><path d="M276.5291,139.0653 C278.7416,133.0104 282.9552,132.9487 286.7739,137.5162 C291.6376,132.1865 295.9769,132.8353 299.3697,139.1123 C301.2657,134.523 306.0636,132.6687 309.5196,137.4164 C312.8791,131.1239 316.4866,131.2305 320.5551,136.7543 C324.1353,131.2677 327.873,132.166 331.3227,136.8919 C335.1614,132.5503 338.7998,132.8787 341.576,138.0385 C344.7514,132.2339 349.8079,130.5811 354.5498,136.2702 C357.5956,131.2994 360.534,131.358 363.655,136.2005 C367.9881,130.4578 372.3161,131.0985 376.0453,136.8515 C380.088,131.9141 383.9571,132.5779 387.0186,137.9009 C389.7871,132.528 394.5505,133.2043 397.6599,137.5267 C400.7103,131.8827 405.5118,132.5978 408.2425,137.8376 C412.4674,132.1954 416.2672,132.8788 420.3037,138.0476 C424.0954,132.7773 428.5472,133.0907 431.7476,138.6712 C440.8926,141.3725 442.7241,149.3956 436.204,156.1019 C443.2389,164.1975 440.7916,170.7354 430.2014,172.2994 C426.7194,177.8902 422.941,177.8178 419.7567,172.0262 C417.7118,177.902 412.7728,177.5255 409.3059,173.5319 C406.559,179.3945 401.9312,179.5459 398.0338,174.7485 C394.9127,180.8644 389.1631,180.5999 386.0938,174.6971 C383.6705,180.2628 380.4416,179.6416 376.5433,176.2741 C373.3892,181.4071 368.8285,182.0431 365.3169,176.6555 C362.9421,182.0373 357.2819,182.5113 353.9329,177.7488 C350.3516,183.7723 345.8083,183.4457 342.121,177.8565 C338.5463,182.4354 333.3535,183.1241 330.6566,176.923 C327.0068,181.4066 322.7018,179.8954 320.9553,174.9623 C316.5032,178.9929 312.7724,178.6572 309.6181,173.3813 C305.4818,179.4902 301.5678,178.1863 297.6884,173.1073 C295.461,177.5332 290.8323,177.3996 288.1788,173.5998 C284.4047,179.2753 278.8249,178.6616 276.3262,172.3398 C266.5893,171.054 263.0189,163.8861 267.5911,155.2756 C262.6285,146.3595 265.1567,138.9746 276.5291,139.0653" fill="#FEF3C7" style="stroke:#181818;stroke-width:0.5;"/><text fill="#000000" font-family="Monospace" font-size="14" lengthAdjust="spacing" textLength="140.2795" x="282.28" y="159.4805">actions/setup-python</text></g><!--entity tool_black--><g class="entity" data-qualified-name="tool_black" data-source-line="10" id="ent0005"><path d="M328.9112,223.1298 C330.933,216.6355 336.9775,216.1158 341.1073,220.8377 C344.9781,214.2128 349.3047,214.0673 353.7324,220.2905 C358.142,214.7962 361.9921,215.0128 365.5159,221.1853 C369.761,215.427 375.5544,215.4704 378.4093,222.5784 C386.4022,226.4399 387.1231,232.9414 380.6001,238.7673 C387.1122,244.8849 386.231,252.6955 377.5817,256.1859 C375.8548,262.423 370.5959,264.9272 365.245,260.3016 C364.2492,266.5594 358.937,267.6661 354.5839,263.8573 C348.0392,269.3441 342.6235,267.4667 341.0711,259.017 C335.2756,264.9176 330.4728,263.5293 328.3437,255.6345 C317.7235,253.7595 316.2382,247.6424 322.2349,239.4827 C316.3182,231.1567 320.1106,225.4473 328.9112,223.1298" fill="#FEF3C7" style="stroke:#181818;stroke-width:0.5;"/><text fill="#000000" font-family="Monospace" font-size="14" lengthAdjust="spacing" textLength="34.2719" x="335.29" y="243.4805">black</text></g><!--entity tool_ls_files--><g class="entity" data-qualified-name="tool_ls_files" data-source-line="11" id="ent0006"><path d="M324.9203,307.6359 C329.3006,299.3381 334.7605,299.7559 339.9662,306.8277 C343.6825,299.8637 348.174,299.6398 353.7949,304.6234 C358.4972,299.5143 362.5513,298.2674 366.6622,305.2526 C371.6071,298.9479 378.5434,299.1121 381.1953,307.5179 C391.4517,306.913 393.8631,315.2235 389.7957,322.7213 C396.1572,332.3018 393.1578,338.3535 382.2372,340.6467 C378.2728,348.9516 371.2087,347.6661 367.0455,340.8464 C363.446,348.2826 358.6004,348.4108 353.0517,342.9636 C348.4205,349.3842 344.3655,348.2678 340.6383,342.0741 C334.5555,347.4188 329.7693,345.9698 326.5845,338.8157 C319.2842,334.5629 318.1242,328.876 324.4492,322.8059 C316.6148,317.6688 317.3365,312.2941 324.9203,307.6359" fill="#FEF3C7" style="stroke:#181818;stroke-width:0.5;"/><text fill="#000000" font-family="Monospace" font-size="14" lengthAdjust="spacing" textLength="41.4678" x="331.69" y="327.4805">ls-files</text></g><!--entity tool_pip--><g class="entity" data-qualified-name="tool_pip" data-source-line="12" id="ent0007"><path d="M336.3012,389.5833 C340.6455,381.9554 348.1107,380.4928 353.5651,388.3452 C360.9731,380.2314 367.0818,382.1788 371.3705,391.526 C380.7419,392.7781 384.8019,397.6707 379.967,406.8778 C386.0578,416.6046 380.3844,423.0287 370.4961,423.8263 C367.5861,433.8019 361.8952,436.1692 353.5133,429.3641 C345.1973,436.4763 337.3826,432.5732 335.3946,422.6384 C327.582,418.3597 325.15,413.7375 332.6587,406.8106 C325.5908,399.5925 326.4757,393.2294 336.3012,389.5833" fill="#FEF3C7" style="stroke:#181818;stroke-width:0.5;"/><text fill="#000000" font-family="Monospace" font-size="14" lengthAdjust="spacing" textLength="20.8319" x="342.01" y="411.4805">pip</text></g><!--entity tool_pylint--><g class="entity" data-qualified-name="tool_pylint" data-source-line="13" id="ent0008"><path d="M329.1373,474.3812 C332.3913,467.8288 337.995,467.3579 341.6382,474.0129 C345.2369,468.6635 350.5336,468.3831 354.5105,473.5498 C357.3185,468.0843 362.2941,467.2512 365.5602,473.1026 C370.0487,467.5819 375.8779,468.2363 378.5285,475.037 C389.8588,475.2009 394.724,480.962 389.31,491.8582 C392.2719,502.0705 389.7022,507.7571 378.0659,507.4248 C377.0497,514.4411 371.1769,514.6479 366.875,510.8135 C365.4854,517.7806 360.1727,520.1703 354.4481,515.4051 C348.6038,520.5716 343.23,518.6892 341.1317,511.4002 C335.9193,516.1983 331.5247,514.6503 329.1358,508.3488 C318.8893,507.236 315.823,499.1504 322.89,491.5865 C315.5842,483.7945 319.4674,476.0092 329.1373,474.3812" fill="#FEF3C7" style="stroke:#181818;stroke-width:0.5;"/><text fill="#000000" font-family="Monospace" font-size="14" lengthAdjust="spacing" textLength="36.6799" x="334.08" y="495.4805">pylint</text></g><!--entity tool_pytest--><g class="entity" data-qualified-name="tool_pytest" data-source-line="14" id="ent0009"><path d="M326.5393,558.9999 C329.2545,552.1216 336.3122,550.5182 340.9773,556.8723 C344.2065,551.083 349.8945,550.842 353.832,556.0439 C357.8587,550.2735 363.7201,551.3538 366.1094,557.7027 C371.7968,550.3591 376.9161,549.9735 381.494,558.7608 C393.2775,559.092 396.7119,566.0104 390.1509,575.7108 C395.6747,585.2813 391.825,592.4616 380.4491,591.9123 C378.7427,599.5537 373.919,601.3628 368.0981,595.745 C366.2712,603.3444 359.915,606.4682 353.2465,601.439 C348.0618,605.6607 341.4224,604.421 340.785,596.6959 C333.6872,602.6548 327.123,599.9988 326.6006,590.6164 C318.4931,587.823 315.0582,582.1703 321.3968,574.6644 C314.398,567.2057 318.5714,561.5452 326.5393,558.9999" fill="#FEF3C7" style="stroke:#181818;stroke-width:0.5;"/><text fill="#000000" font-family="Monospace" font-size="14" lengthAdjust="spacing" textLength="40.4599" x="332.19" y="579.4805">pytest</text></g><!--entity tool_ruff--><g class="entity" data-qualified-name="tool_ruff" data-source-line="15" id="ent0010"><path d="M333.9732,642.2019 C338.8431,632.8025 348.2261,632.0703 353.8462,641.4062 C360.6549,633.7135 366.3365,633.7482 371.4754,643.1302 C382.031,643.78 384.2817,650.3738 379.4655,658.8412 C384.2434,667.6707 380.8404,672.6353 371.8339,674.9239 C366.6911,684.8791 361.0008,685.5822 353.3629,677.4754 C346.7135,685.0647 338.4281,685.8637 334.2621,674.9164 C325.2582,673.6086 322.5361,666.6505 328.779,659.8089 C321.459,652.5778 325.2246,644.6927 333.9732,642.2019" fill="#FEF3C7" style="stroke:#181818;stroke-width:0.5;"/><text fill="#000000" font-family="Monospace" font-size="14" lengthAdjust="spacing" textLength="24.0659" x="340.39" y="663.4805">ruff</text></g><!--entity tool_tee--><g class="entity" data-qualified-name="tool_tee" data-source-line="16" id="ent0011"><path d="M336.2912,725.5833 C340.6374,717.9524 348.1057,716.4894 353.5621,724.3452 C360.9724,716.2278 367.0835,718.1756 371.3745,727.526 C380.7459,728.7781 384.8059,733.6707 379.971,742.8778 C386.0618,752.6046 380.3884,759.0287 370.5001,759.8263 C367.5878,769.8052 361.8945,772.1728 353.5103,765.3641 C345.1924,772.4798 337.3746,768.5763 335.3846,758.6384 C327.572,754.3597 325.14,749.7375 332.6487,742.8106 C325.5808,735.5925 326.4657,729.2294 336.2912,725.5833" fill="#FEF3C7" style="stroke:#181818;stroke-width:0.5;"/><text fill="#000000" font-family="Monospace" font-size="14" lengthAdjust="spacing" textLength="20.8459" x="342" y="747.4805">tee</text></g><g class="entity" data-qualified-name="toolingGraphSummary" data-source-line="27" id="ent0021"><path d="M6,296.3446 L6,341.7566 L207.2842,341.7566 L207.2842,306.3446 L197.2842,296.3446 L6,296.3446" fill="#FEFFDD" style="stroke:#181818;stroke-width:0.5;"/><path d="M197.2842,296.3446 L197.2842,306.3446 L207.2842,306.3446 L197.2842,296.3446" fill="#FEFFDD" style="stroke:#181818;stroke-width:1;"/><text fill="#000000" font-family="Monospace" font-size="13" lengthAdjust="spacing" textLength="180.2842" x="12" y="315.2416">Scanned&#160;1&#160;tooling&#160;entrypoint.</text><text fill="#000000" font-family="Monospace" font-size="13" lengthAdjust="spacing" textLength="171.7822" x="12" y="332.9476">Detected&#160;9&#160;third-party&#160;tools.</text></g><!--link source_github_workflows_ci_yml to tool_actions_checkout--><g class="link" data-entity-1="ent0002" data-entity-2="ent0003" data-link-type="dependency" data-source-line="17" id="lnk12"><path d="M198.29,388.5246 C215.16,388.5246 227.56,388.5246 227.56,388.5246 C227.56,388.5246 227.56,70.0546 227.56,70.0546 C227.56,70.0546 247.2,70.0546 275.24,70.0546" fill="none" id="source_github_workflows_ci_yml-to-tool_actions_checkout" style="stroke:#181818;stroke-width:1;"/><polygon fill="#181818" points="281.24,70.0546,272.24,66.0546,276.24,70.0546,272.24,74.0546,281.24,70.0546" style="stroke:#181818;stroke-width:1;"/></g><!--link source_github_workflows_ci_yml to tool_actions_setup_python--><g class="link" data-entity-1="ent0002" data-entity-2="ent0004" data-link-type="dependency" data-source-line="18" id="lnk13"><path d="M198.29,402.5446 C244.79,402.5446 291.56,402.5446 291.56,402.5446 C291.56,402.5446 291.56,247.6446 291.56,184.7846" fill="none" id="source_github_workflows_ci_yml-to-tool_actions_setup_python" style="stroke:#181818;stroke-width:1;"/><polygon fill="#181818" points="291.56,178.7846,287.56,187.7846,291.56,183.7846,295.56,187.7846,291.56,178.7846" style="stroke:#181818;stroke-width:1;"/></g><!--link source_github_workflows_ci_yml to tool_black--><g class="link" data-entity-1="ent0002" data-entity-2="ent0005" data-link-type="dependency" data-source-line="19" id="lnk14"><path d="M198.28,395.5346 C225.19,395.5346 247.56,395.5346 247.56,395.5346 C247.56,395.5346 247.56,238.0546 247.56,238.0546 C247.56,238.0546 283.04,238.0546 313.82,238.0546" fill="none" id="source_github_workflows_ci_yml-to-tool_black" style="stroke:#181818;stroke-width:1;"/><polygon fill="#181818" points="319.82,238.0546,310.82,234.0546,314.82,238.0546,310.82,242.0546,319.82,238.0546" style="stroke:#181818;stroke-width:1;"/></g><!--link source_github_workflows_ci_yml to tool_ls_files--><g class="link" data-entity-1="ent0002" data-entity-2="ent0006" data-link-type="dependency" data-source-line="20" id="lnk15"><path d="M198.43,409.5546 C257.99,409.5546 324.56,409.5546 324.56,409.5546 C324.56,409.5546 324.56,378.7646 324.56,352.8946" fill="none" id="source_github_workflows_ci_yml-to-tool_ls_files" style="stroke:#181818;stroke-width:1;"/><polygon fill="#181818" points="324.56,346.8946,320.56,355.8946,324.56,351.8946,328.56,355.8946,324.56,346.8946" style="stroke:#181818;stroke-width:1;"/></g><!--link source_github_workflows_ci_yml to tool_pip--><g class="link" data-entity-1="ent0002" data-entity-2="ent0007" data-link-type="dependency" data-source-line="21" id="lnk16"><path d="M198.16,416.5646 C244.02,416.5646 290.12,416.5646 320.53,416.5646" fill="none" id="source_github_workflows_ci_yml-to-tool_pip" style="stroke:#181818;stroke-width:1;"/><polygon fill="#181818" points="326.53,416.5646,317.53,412.5646,321.53,416.5646,317.53,420.5646,326.53,416.5646" style="stroke:#181818;stroke-width:1;"/></g><!--link source_github_workflows_ci_yml to tool_pylint--><g class="link" data-entity-1="ent0002" data-entity-2="ent0008" data-link-type="dependency" data-source-line="22" id="lnk17"><path d="M198.41,423.5746 C256.83,423.5746 321.56,423.5746 321.56,423.5746 C321.56,423.5746 321.56,440.3946 321.56,459.2946" fill="none" id="source_github_workflows_ci_yml-to-tool_pylint" style="stroke:#181818;stroke-width:1;"/><polygon fill="#181818" points="321.56,465.2946,325.56,456.2946,321.56,460.2946,317.56,456.2946,321.56,465.2946" style="stroke:#181818;stroke-width:1;"/></g><!--link source_github_workflows_ci_yml to tool_pytest--><g class="link" data-entity-1="ent0002" data-entity-2="ent0009" data-link-type="dependency" data-source-line="23" id="lnk18"><path d="M152.56,435.3146 C152.56,483.4446 152.56,574.0546 152.56,574.0546 C152.56,574.0546 253.78,574.0546 311.15,574.0546" fill="none" id="source_github_workflows_ci_yml-to-tool_pytest" style="stroke:#181818;stroke-width:1;"/><polygon fill="#181818" points="317.15,574.0546,308.15,570.0546,312.15,574.0546,308.15,578.0546,317.15,574.0546" style="stroke:#181818;stroke-width:1;"/></g><!--link source_github_workflows_ci_yml to tool_ruff--><g class="link" data-entity-1="ent0002" data-entity-2="ent0010" data-link-type="dependency" data-source-line="24" id="lnk19"><path d="M106.56,435.4546 C106.56,501.9246 106.56,658.0546 106.56,658.0546 C106.56,658.0546 255.16,658.0546 319.17,658.0546" fill="none" id="source_github_workflows_ci_yml-to-tool_ruff" style="stroke:#181818;stroke-width:1;"/><polygon fill="#181818" points="325.17,658.0546,316.17,654.0546,320.17,658.0546,316.17,662.0546,325.17,658.0546" style="stroke:#181818;stroke-width:1;"/></g><!--link source_github_workflows_ci_yml to tool_tee--><g class="link" data-entity-1="ent0002" data-entity-2="ent0011" data-link-type="dependency" data-source-line="25" id="lnk20"><path d="M60.56,435.5746 C60.56,517.5646 60.56,742.0546 60.56,742.0546 C60.56,742.0546 249.09,742.0546 320.52,742.0546" fill="none" id="source_github_workflows_ci_yml-to-tool_tee" style="stroke:#181818;stroke-width:1;"/><polygon fill="#181818" points="326.52,742.0546,317.52,738.0546,321.52,742.0546,317.52,746.0546,326.52,742.0546" style="stroke:#181818;stroke-width:1;"/></g><?plantuml-src bPH1Rvmm48Nl_8hHviocQGvLBhqqIvL3SzaSAo77362jyLZse1N_FcEsB9IjL78Sl-yDOpyDRDWYQCFO18pmHcIDQ-35fGF5XbpCBDOCJ11Cqp9K9g1EGXPFndaLL0UnLHMTax5MDk92gR1MlUM27B-g3k4NEOfUwIMZgVFaqF6H1nacjLUkiKj4Xa8UF085RYcx8h3RDuRR_lt-JE5KMph7UstsGsT_koVvE0k8bGnFDkv0HOZK1utbnLHUJQKsfPZWxl2b-5eSCcsfhs2dnejAonRrYNeUMwHcvH-bd1IuAmx5uuzlQsT4xdtk1vdQtRf7jRoewmxlLkdJR1dBDMDZNXkBSSPiBCUJDUcDdo4fRlH1ddXnlqjzIp76lwXKhwdGr_NCf6fDCE8CI77L_nDFdd__z_D_shXy-StcCOFDz1J5PeF4ifqTy_a4deBQZAVCDiEIN-Q8SGfKVWC_W_BjiUyw5ORig9LpieGFamgowc7m91VOPy_JZZu1joPKkImy3vUDtMVeAaYzFm00?></g></svg>
