<?plantuml 1.2026.2?><svg xmlns="http://www.w3.org/2000/svg" xmlns:xlink="http://www.w3.org/1999/xlink" contentStyleType="text/css" data-diagram-type="DESCRIPTION" height="1117px" preserveAspectRatio="none" style="width:510px;height:1117px;background:#FFFFFF;" version="1.1" viewBox="0 0 510 1117" width="510px" zoomAndPan="magnify"><title>citegres Tooling Integrations</title><defs/><g><g class="title" data-source-line="1"><text fill="#000000" font-family="Monospace" font-size="14" font-weight="bold" lengthAdjust="spacing" textLength="201.6658" x="147.556" y="24.9659">citegres&#160;Tooling&#160;Integrations</text></g><!--entity source_github_workflows_ci_yml--><g class="entity" data-qualified-name="source_github_workflows_ci_yml" data-source-line="7" id="ent0002"><rect fill="#E0F2FE" height="58.1358" rx="2.5" ry="2.5" style="stroke:#181818;stroke-width:0.5;" width="182.6234" x="39.08" y="630.7079"/><text fill="#000000" font-family="Monospace" font-size="14" lengthAdjust="spacing" textLength="162.6234" x="49.08" y="655.6739">.github/workflows/ci.yml</text><text fill="#000000" font-family="Monospace" font-size="14" lengthAdjust="spacing" textLength="105.3356" x="49.08" y="674.7418">9&#160;detected&#160;tools</text></g><!--entity source_github_workflows_secret_scan_yml--><g class="entity" data-qualified-name="source_github_workflows_secret_scan_yml" data-source-line="8" id="ent0003"><rect fill="#E0F2FE" height="58.1358" rx="2.5" ry="2.5" style="stroke:#181818;stroke-width:0.5;" width="246.7851" x="7" y="1008.7079"/><text fill="#000000" font-family="Monospace" font-size="14" lengthAdjust="spacing" textLength="226.7851" x="17" y="1033.6739">.github/workflows/secret-scan.yml</text><text fill="#000000" font-family="Monospace" font-size="14" lengthAdjust="spacing" textLength="105.3356" x="17" y="1052.7418">2&#160;detected&#160;tools</text></g><!--entity source_scripts_run_tachometer_profile_sh--><g class="entity" data-qualified-name="source_scripts_run_tachometer_profile_sh" data-source-line="9" id="ent0004"><rect fill="#E0F2FE" height="58.1358" rx="2.5" ry="2.5" style="stroke:#181818;stroke-width:0.5;" width="242.2912" x="9.25" y="126.7079"/><text fill="#000000" font-family="Monospace" font-size="14" lengthAdjust="spacing" textLength="222.2912" x="19.25" y="151.6739">scripts/run_tachometer_profile.sh</text><text fill="#000000" font-family="Monospace" font-size="14" lengthAdjust="spacing" textLength="105.3356" x="19.25" y="170.7418">3&#160;detected&#160;tools</text></g><!--entity tool_actions_checkout--><g class="entity" data-qualified-name="tool_actions_checkout" data-source-line="10" id="ent0005"><path d="M343.1221,979.6036 C346.9739,973.4446 351.7165,973.5851 355.446,979.7262 C358.7517,972.9632 363.7534,974.2122 367.792,978.9387 C372.4123,971.7913 376.6729,971.9161 381.3139,978.919 C385.5887,972.6356 389.4213,973.6236 393.5173,979.1045 C396.8488,974.4186 402.0624,974.5722 404.8426,979.7382 C407.5408,974.0805 413.8073,973.5886 417.3845,978.7161 C421.4641,972.6788 426.7619,972.7384 431.135,978.3702 C436.3096,972.9347 441.0712,973.4348 443.9216,980.7085 C446.8926,974.5845 452.3729,974.6686 455.4115,980.6443 C459.3803,974.8108 463.7644,975.5678 467.7744,980.5974 C477.4557,983.007 478.7659,989.1667 473.7682,996.955 C479.2131,1005.4122 477.748,1010.5155 467.8047,1013.3885 C465.5571,1019.0599 460.1973,1019.5312 457.0214,1014.3073 C453.4344,1020.8175 447.2723,1021.4068 442.6811,1015.4636 C439.9476,1021.3661 435.9771,1022.9815 430.7471,1018.2708 C427.4662,1024.7747 422.9701,1024.5988 418.8901,1019.0573 C416.3617,1026.4965 409.8443,1026.9634 405.836,1020.4411 C400.9327,1026.8389 395.4736,1024.7632 392.9865,1018.0695 C389.0506,1024.8475 383.1289,1024.6921 379.5581,1017.7131 C375.0234,1023.2315 370.3351,1021.7529 367.6615,1015.7855 C363.7843,1020.903 358.4253,1020.5251 355.8814,1014.3898 C351.4205,1019.8529 345.1986,1020.5887 341.9371,1013.0986 C334.8391,1009.0471 333.4377,1001.0642 342.0187,997.0927 C333.7764,991.0645 334.7235,984.5819 343.1221,979.6036" fill="#FEF3C7" style="stroke:#181818;stroke-width:0.5;"/><text fill="#000000" font-family="Monospace" font-size="14" lengthAdjust="spacing" textLength="111.9156" x="348.69" y="1001.2039">actions/checkout</text></g><!--entity tool_actions_setup_python--><g class="entity" data-qualified-name="tool_actions_setup_python" data-source-line="11" id="ent0006"><path d="M328.7491,308.7886 C330.9616,302.7338 335.1752,302.672 338.9939,307.2395 C343.8576,301.9098 348.1969,302.5586 351.5897,308.8357 C353.4857,304.2463 358.2836,302.3921 361.7396,307.1398 C365.0991,300.8472 368.7066,300.9538 372.7751,306.4776 C376.3553,300.9911 380.093,301.8893 383.5427,306.6152 C387.3814,302.2736 391.0198,302.602 393.796,307.7618 C396.9714,301.9573 402.0279,300.3045 406.7698,305.9936 C409.8156,301.0228 412.754,301.0813 415.875,305.9238 C420.2081,300.1812 424.5361,300.8219 428.2653,306.5748 C432.308,301.6374 436.1771,302.3012 439.2386,307.6243 C442.0071,302.2513 446.7705,302.9276 449.8799,307.2501 C452.9303,301.606 457.7318,302.3211 460.4625,307.5609 C464.6874,301.9187 468.4872,302.6022 472.5237,307.771 C476.3154,302.5006 480.7672,302.814 483.9676,308.3945 C493.1126,311.0958 494.9441,319.119 488.424,325.8252 C495.4589,333.9209 493.0116,340.4588 482.4214,342.0228 C478.9394,347.6135 475.161,347.5411 471.9767,341.7495 C469.9318,347.6253 464.9928,347.2488 461.5259,343.2552 C458.779,349.1179 454.1512,349.2693 450.2538,344.4719 C447.1327,350.5877 441.3831,350.3233 438.3138,344.4204 C435.8905,349.9861 432.6616,349.365 428.7633,345.9974 C425.6092,351.1305 421.0485,351.7664 417.5369,346.3789 C415.1621,351.7606 409.5019,352.2346 406.1529,347.4721 C402.5716,353.4957 398.0283,353.169 394.341,347.5798 C390.7663,352.1587 385.5735,352.8475 382.8766,346.6464 C379.2268,351.1299 374.9218,349.6187 373.1753,344.6856 C368.7232,348.7163 364.9924,348.3805 361.8381,343.1046 C357.7018,349.2135 353.7878,347.9096 349.9084,342.8306 C347.681,347.2565 343.0523,347.123 340.3988,343.3232 C336.6247,348.9986 331.0449,348.3849 328.5462,342.0631 C318.8093,340.7773 315.2389,333.6095 319.8111,324.9989 C314.8485,316.0828 317.3767,308.6979 328.7491,308.7886" fill="#FEF3C7" style="stroke:#181818;stroke-width:0.5;"/><text fill="#000000" font-family="Monospace" font-size="14" lengthAdjust="spacing" textLength="140.2795" x="334.5" y="329.2039">actions/setup-python</text></g><!--entity tool_black--><g class="entity" data-qualified-name="tool_black" data-source-line="12" id="ent0007"><path d="M381.1312,392.8532 C383.153,386.3588 389.1975,385.8391 393.3273,390.5611 C397.1981,383.9361 401.5247,383.7907 405.9524,390.0139 C410.362,384.5195 414.2121,384.7362 417.7359,390.9086 C421.981,385.1503 427.7744,385.1937 430.6293,392.3017 C438.6222,396.1633 439.3431,402.6647 432.8201,408.4906 C439.3322,414.6082 438.451,422.4189 429.8017,425.9092 C428.0748,432.1464 422.8159,434.6505 417.465,430.025 C416.4692,436.2827 411.157,437.3895 406.8039,433.5806 C400.2592,439.0675 394.8435,437.1901 393.2911,428.7403 C387.4956,434.6409 382.6928,433.2527 380.5637,425.3578 C369.9435,423.4828 368.4582,417.3657 374.4549,409.206 C368.5382,400.88 372.3306,395.1707 381.1312,392.8532" fill="#FEF3C7" style="stroke:#181818;stroke-width:0.5;"/><text fill="#000000" font-family="Monospace" font-size="14" lengthAdjust="spacing" textLength="34.2719" x="387.51" y="413.2039">black</text></g><!--entity tool_gitleaks_gitleaks_action--><g class="entity" data-qualified-name="tool_gitleaks_gitleaks_action" data-source-line="13" id="ent0008"><path d="M321.8066,1064.893 C325.947,1057.5143 330.177,1058.0066 335.4158,1063.7541 C339.3275,1058.2092 344.1595,1058.4052 347.283,1064.5539 C350.5392,1058.6947 355.0225,1058.979 358.3929,1064.4418 C361.5446,1059.0893 366.4898,1057.4346 370.5706,1063.4461 C373.2564,1057.6664 379.1413,1055.9679 382.8772,1062.3866 C387.266,1056.241 391.9879,1058.4888 394.9286,1063.897 C397.4946,1059.0278 401.0411,1058.0315 404.7422,1062.733 C408.7749,1055.4053 415.2627,1057.4639 418.6078,1063.4491 C421.058,1059.0407 425.717,1058.7365 428.5231,1063.0442 C432.0761,1057.319 436.2952,1057.4517 440.2087,1062.6588 C444.9545,1057.5886 450.9864,1057.3013 454.1267,1064.4827 C457.125,1059.3534 462.1092,1058.0673 466.0206,1063.4495 C469.1513,1058.2607 472.7591,1058.0943 476.2436,1063.0946 C481.4706,1057.34 485.3826,1058.1017 488.5387,1065.0923 C498.1289,1065.8242 501.5936,1072.5209 497.8693,1081.0418 C503.7777,1091.3892 498.9816,1098.2098 487.593,1098.1943 C484.034,1102.7655 480.1213,1102.1223 477.2972,1097.3818 C474.7918,1105.1453 469.7892,1105.7071 464.4896,1100.0479 C461.3635,1105.1547 458.1417,1105.0319 454.2266,1100.927 C449.7634,1106.3778 444.9766,1108.0043 440.689,1100.7401 C437.2687,1106.7809 432.6114,1106.7686 428.624,1101.3365 C426.189,1107.7211 422.8242,1108.0873 418.0516,1103.6122 C414.3675,1109.4364 410.0873,1110.0617 405.3591,1104.8085 C400.5663,1109.4504 396.3759,1109.6466 392.9081,1103.3062 C389.1428,1107.9129 383.8424,1107.9518 381.2412,1102.0177 C377.7598,1107.3919 373.471,1106.4789 370.6738,1101.3305 C366.9166,1108.1314 361.6216,1107.4254 358.0792,1101.124 C353.7449,1105.5215 349.1875,1105.0186 346.4251,1099.3111 C342.5541,1104.9883 337.1276,1102.6124 334.9768,1097.4879 C332.061,1103.9809 326.3037,1104.2292 322.5763,1098.2979 C312.8682,1095.6607 311.3088,1087.8995 317.6431,1080.7519 C310.6884,1074.4309 313.5918,1067.2313 321.8066,1064.893" fill="#FEF3C7" style="stroke:#181818;stroke-width:0.5;"/><text fill="#000000" font-family="Monospace" font-size="14" lengthAdjust="spacing" textLength="151.7174" x="328.79" y="1085.2039">gitleaks/gitleaks-action</text></g><!--entity tool_ls_files--><g class="entity" data-qualified-name="tool_ls_files" data-source-line="14" id="ent0009"><path d="M377.1403,477.3592 C381.5206,469.0615 386.9805,469.4793 392.1862,476.5511 C395.9025,469.587 400.394,469.3631 406.0149,474.3467 C410.7172,469.2376 414.7713,467.9908 418.8822,474.9759 C423.8271,468.6712 430.7634,468.8354 433.4153,477.2413 C443.6717,476.6364 446.0831,484.9468 442.0157,492.4447 C448.3772,502.0251 445.3778,508.0769 434.4572,510.37 C430.4928,518.6749 423.4287,517.3895 419.2655,510.5697 C415.666,518.006 410.8204,518.1342 405.2717,512.6869 C400.6405,519.1076 396.5855,517.9912 392.8583,511.7974 C386.7755,517.1421 381.9893,515.6931 378.8045,508.539 C371.5042,504.2862 370.3442,498.5994 376.6692,492.5293 C368.8348,487.3922 369.5565,482.0175 377.1403,477.3592" fill="#FEF3C7" style="stroke:#181818;stroke-width:0.5;"/><text fill="#000000" font-family="Monospace" font-size="14" lengthAdjust="spacing" textLength="41.4678" x="383.91" y="497.2039">ls-files</text></g><!--entity tool_pip--><g class="entity" data-qualified-name="tool_pip" data-source-line="15" id="ent0010"><path d="M388.5212,559.3066 C392.8655,551.6787 400.3307,550.2161 405.7851,558.0686 C413.1931,549.9547 419.3018,551.9022 423.5905,561.2494 C432.9619,562.5015 437.0219,567.3941 432.187,576.6012 C438.2778,586.3279 432.6044,592.752 422.7161,593.5496 C419.8061,603.5252 414.1152,605.8925 405.7333,599.0874 C397.4173,606.1997 389.6026,602.2965 387.6146,592.3617 C379.802,588.083 377.37,583.4608 384.8787,576.5339 C377.8108,569.3159 378.6957,562.9528 388.5212,559.3066" fill="#FEF3C7" style="stroke:#181818;stroke-width:0.5;"/><text fill="#000000" font-family="Monospace" font-size="14" lengthAdjust="spacing" textLength="20.8319" x="394.23" y="581.2039">pip</text></g><!--entity tool_pylint--><g class="entity" data-qualified-name="tool_pylint" data-source-line="16" id="ent0011"><path d="M381.3573,644.1046 C384.6113,637.5521 390.215,637.0813 393.8582,643.7362 C397.4569,638.3869 402.7536,638.1065 406.7305,643.2732 C409.5385,637.8077 414.5141,636.9746 417.7802,642.8259 C422.2687,637.3053 428.0979,637.9597 430.7485,644.7603 C442.0788,644.9242 446.944,650.6854 441.53,661.5815 C444.4919,671.7938 441.9222,677.4805 430.2859,677.1481 C429.2697,684.1645 423.3969,684.3713 419.095,680.5368 C417.7054,687.5039 412.3927,689.8936 406.6681,685.1284 C400.8238,690.2949 395.45,688.4126 393.3517,681.1235 C388.1393,685.9216 383.7447,684.3737 381.3558,678.0721 C371.1093,676.9593 368.043,668.8738 375.11,661.3098 C367.8042,653.5178 371.6874,645.7325 381.3573,644.1046" fill="#FEF3C7" style="stroke:#181818;stroke-width:0.5;"/><text fill="#000000" font-family="Monospace" font-size="14" lengthAdjust="spacing" textLength="36.6799" x="386.3" y="665.2039">pylint</text></g><!--entity tool_pytest--><g class="entity" data-qualified-name="tool_pytest" data-source-line="17" id="ent0012"><path d="M378.7593,728.7232 C381.4745,721.845 388.5322,720.2415 393.1973,726.5957 C396.4265,720.8063 402.1145,720.5653 406.052,725.7673 C410.0787,719.9968 415.9401,721.0771 418.3294,727.426 C424.0168,720.0824 429.1361,719.6968 433.714,728.4842 C445.4975,728.8154 448.9319,735.7337 442.3709,745.4341 C447.8947,755.0046 444.045,762.185 432.6691,761.6356 C430.9627,769.277 426.139,771.0862 420.3181,765.4684 C418.4912,773.0677 412.135,776.1915 405.4665,771.1624 C400.2818,775.384 393.6424,774.1444 393.005,766.4192 C385.9072,772.3782 379.343,769.7221 378.8206,760.3397 C370.7131,757.5464 367.2782,751.8936 373.6168,744.3877 C366.618,736.929 370.7914,731.2685 378.7593,728.7232" fill="#FEF3C7" style="stroke:#181818;stroke-width:0.5;"/><text fill="#000000" font-family="Monospace" font-size="14" lengthAdjust="spacing" textLength="40.4599" x="384.41" y="749.2039">pytest</text></g><!--entity tool_ruff--><g class="entity" data-qualified-name="tool_ruff" data-source-line="18" id="ent0013"><path d="M386.1932,811.9253 C391.0631,802.5258 400.4461,801.7936 406.0662,811.1296 C412.8749,803.4368 418.5565,803.4715 423.6954,812.8536 C434.251,813.5033 436.5017,820.0972 431.6855,828.5645 C436.4634,837.394 433.0604,842.3586 424.0539,844.6472 C418.9111,854.6025 413.2208,855.3056 405.5829,847.1988 C398.9335,854.788 390.6481,855.587 386.4821,844.6398 C377.4782,843.3319 374.7561,836.3738 380.999,829.5323 C373.679,822.3011 377.4446,814.416 386.1932,811.9253" fill="#FEF3C7" style="stroke:#181818;stroke-width:0.5;"/><text fill="#000000" font-family="Monospace" font-size="14" lengthAdjust="spacing" textLength="24.0659" x="392.61" y="833.2039">ruff</text></g><!--entity tool_run--><g class="entity" data-qualified-name="tool_run" data-source-line="19" id="ent0014"><path d="M386.3102,56.8706 C391.1818,47.7293 399.4848,46.1296 406.5451,54.3143 C412.4087,46.5504 420.7335,48.2883 424.1327,56.9525 C433.7223,57.6613 439.4116,62.4144 433.9244,72.5737 C439.1585,82.0202 435.6565,87.44 425.283,88.3228 C425.0446,101.0475 418.7131,106.0421 406.7197,99.8709 C395.813,104.9036 388.6506,103.4176 387.9502,89.6703 C378.2893,88.8356 374.5011,80.744 379.8539,72.7327 C374.7985,64.6057 377.2147,59.2377 386.3102,56.8706" fill="#FEF3C7" style="stroke:#181818;stroke-width:0.5;"/><text fill="#000000" font-family="Monospace" font-size="14" lengthAdjust="spacing" textLength="23.0859" x="393.1" y="77.2039">run</text></g><!--entity tool_summarize--><g class="entity" data-qualified-name="tool_summarize" data-source-line="20" id="ent0015"><path d="M362.1762,139.7082 C367.3705,132.088 372.6079,133.6617 377.0354,140.4963 C380.6519,133.3452 386.3594,133.5795 390.4402,140.0389 C395.2742,132.5754 400.0409,131.3054 406.2459,138.5673 C410.3067,131.1997 417.4065,131.4657 421.0306,139.0007 C425.6151,132.1413 432.5065,132.4184 435.7224,140.3593 C439.3589,134.5447 446.059,133.9823 449.2217,140.8631 C458.5894,140.9338 462.6994,148.7506 457.6093,156.5512 C463.5539,165.1643 459.8813,171.1668 450.2864,172.7589 C446.5044,180.6105 438.9145,180.5184 433.9962,174.0518 C430.6899,182.1689 425.4083,181.6599 420.1495,176.0165 C417.3574,183.3974 410.4739,182.8845 406.4146,177.3659 C401.5856,182.9427 396.6155,183.9218 392.2781,176.8179 C386.7202,182.4858 380.3988,181.7947 377.3019,174.0665 C373.112,181.7863 366.6219,181.8264 362.7476,173.7753 C352.1876,172.9199 350.2551,163.6176 355.6971,156.3045 C350.3833,149.1206 351.4492,140.6298 362.1762,139.7082" fill="#FEF3C7" style="stroke:#181818;stroke-width:0.5;"/><text fill="#000000" font-family="Monospace" font-size="14" lengthAdjust="spacing" textLength="73.2617" x="368.01" y="161.2039">summarize</text></g><!--entity tool_tachometer--><g class="entity" data-qualified-name="tool_tachometer" data-source-line="21" id="ent0016"><path d="M360.9872,223.6907 C363.7607,218.6174 368.316,218.9775 371.0474,223.7338 C375.1284,217.5092 380.4757,218.9347 383.9326,224.4206 C387.2505,218.9344 390.5063,218.5078 394.2478,224.0235 C397.1386,217.1195 401.6921,217.0811 406.4258,222.1488 C410.2408,216.9114 414.6324,219.0105 416.9133,223.7599 C420.0461,218.6305 424.0749,218.416 427.596,223.3474 C431.4374,217.506 436.3407,218.6284 439.4076,224.1523 C442.476,218.4488 447.1169,219.7477 450.0923,224.2497 C458.3208,228.061 459.0021,235.0747 451.8396,240.5371 C459.86,245.5006 459.341,251.1823 452.0084,256.3101 C448.8261,261.712 444.5387,262.4527 440.6112,257.0998 C437.9529,263.7654 432.8921,264.0238 428.378,259.0502 C424.4125,264.4338 421.0946,263.6977 417.3771,258.7852 C414.9691,264.4725 409.7053,264.6148 406.7016,259.3666 C403.2925,264.1032 398.195,264.5201 395.0793,259.0332 C391.0547,262.8121 386.3451,263.0921 384.2126,256.959 C381.213,263.9778 375.0763,263.2166 371.0372,258.0863 C367.4931,262.5639 361.867,262.1996 359.5147,256.7087 C350.7079,255.5597 347.7525,247.3143 352.6287,240.3911 C347.9121,230.9882 349.3316,224.8994 360.9872,223.6907" fill="#FEF3C7" style="stroke:#181818;stroke-width:0.5;"/><text fill="#000000" font-family="Monospace" font-size="14" lengthAdjust="spacing" textLength="76.4677" x="366.41" y="245.2039">tachometer</text></g><!--entity tool_tee--><g class="entity" data-qualified-name="tool_tee" data-source-line="22" id="ent0017"><path d="M388.5112,895.3066 C392.8574,887.6758 400.3257,886.2128 405.7821,894.0686 C413.1924,885.9511 419.3035,887.8989 423.5945,897.2494 C432.9659,898.5015 437.0259,903.3941 432.191,912.6012 C438.2818,922.3279 432.6084,928.752 422.7201,929.5496 C419.8078,939.5286 414.1145,941.8961 405.7303,935.0874 C397.4124,942.2031 389.5946,938.2997 387.6046,928.3617 C379.792,924.083 377.36,919.4608 384.8687,912.5339 C377.8008,905.3159 378.6857,898.9528 388.5112,895.3066" fill="#FEF3C7" style="stroke:#181818;stroke-width:0.5;"/><text fill="#000000" font-family="Monospace" font-size="14" lengthAdjust="spacing" textLength="20.8459" x="394.22" y="917.2039">tee</text></g><g class="entity" data-qualified-name="toolingGraphSummary" data-source-line="38" id="ent0032"><path d="M26.64,46.0679 L26.64,91.4799 L234.1512,91.4799 L234.1512,56.0679 L224.1512,46.0679 L26.64,46.0679" fill="#FEFFDD" style="stroke:#181818;stroke-width:0.5;"/><path d="M224.1512,46.0679 L224.1512,56.0679 L234.1512,56.0679 L224.1512,46.0679" fill="#FEFFDD" style="stroke:#181818;stroke-width:1;"/><text fill="#000000" font-family="Monospace" font-size="13" lengthAdjust="spacing" textLength="186.5112" x="32.64" y="64.9649">Scanned&#160;3&#160;tooling&#160;entrypoints.</text><text fill="#000000" font-family="Monospace" font-size="13" lengthAdjust="spacing" textLength="179.2182" x="32.64" y="82.6709">Detected&#160;13&#160;third-party&#160;tools.</text></g><!--link source_github_workflows_ci_yml to tool_actions_checkout--><g class="link" data-entity-1="ent0002" data-entity-2="ent0005" data-link-type="dependency" data-source-line="23" id="lnk18"><path d="M221.92,672.0379 C282.75,672.0379 351.5,672.0379 351.5,672.0379 C351.5,672.0379 351.5,889.0979 351.5,964.9079" fill="none" id="source_github_workflows_ci_yml-to-tool_actions_checkout" style="stroke:#181818;stroke-width:1;"/><polygon fill="#181818" points="351.5,970.9079,355.5,961.9079,351.5,965.9079,347.5,961.9079,351.5,970.9079" style="stroke:#181818;stroke-width:1;"/></g><!--link source_github_workflows_ci_yml to tool_actions_setup_python--><g class="link" data-entity-1="ent0002" data-entity-2="ent0006" data-link-type="dependency" data-source-line="24" id="lnk19"><path d="M222.13,647.5079 C273.17,647.5079 326.5,647.5079 326.5,647.5079 C326.5,647.5079 326.5,430.4479 326.5,354.6379" fill="none" id="source_github_workflows_ci_yml-to-tool_actions_setup_python" style="stroke:#181818;stroke-width:1;"/><polygon fill="#181818" points="326.5,348.6379,322.5,357.6379,326.5,353.6379,330.5,357.6379,326.5,348.6379" style="stroke:#181818;stroke-width:1;"/></g><!--link source_github_workflows_ci_yml to tool_black--><g class="link" data-entity-1="ent0002" data-entity-2="ent0007" data-link-type="dependency" data-source-line="25" id="lnk20"><path d="M84.5,630.3779 C84.5,563.8979 84.5,407.7779 84.5,407.7779 C84.5,407.7779 284.8,407.7779 366.19,407.7779" fill="none" id="source_github_workflows_ci_yml-to-tool_black" style="stroke:#181818;stroke-width:1;"/><polygon fill="#181818" points="372.19,407.7779,363.19,403.7779,367.19,407.7779,363.19,411.7779,372.19,407.7779" style="stroke:#181818;stroke-width:1;"/></g><!--link source_github_workflows_ci_yml to tool_ls_files--><g class="link" data-entity-1="ent0002" data-entity-2="ent0009" data-link-type="dependency" data-source-line="26" id="lnk21"><path d="M130.5,630.5079 C130.5,582.3779 130.5,491.7779 130.5,491.7779 C130.5,491.7779 288.08,491.7779 362.52,491.7779" fill="none" id="source_github_workflows_ci_yml-to-tool_ls_files" style="stroke:#181818;stroke-width:1;"/><polygon fill="#181818" points="368.52,491.7779,359.52,487.7779,363.52,491.7779,359.52,495.7779,368.52,491.7779" style="stroke:#181818;stroke-width:1;"/></g><!--link source_github_workflows_ci_yml to tool_pip--><g class="link" data-entity-1="ent0002" data-entity-2="ent0010" data-link-type="dependency" data-source-line="27" id="lnk22"><path d="M176.5,630.3979 C176.5,606.1679 176.5,575.7779 176.5,575.7779 C176.5,575.7779 313.25,575.7779 372.92,575.7779" fill="none" id="source_github_workflows_ci_yml-to-tool_pip" style="stroke:#181818;stroke-width:1;"/><polygon fill="#181818" points="378.92,575.7779,369.92,571.7779,373.92,575.7779,369.92,579.7779,378.92,575.7779" style="stroke:#181818;stroke-width:1;"/></g><!--link source_github_workflows_ci_yml to tool_pylint--><g class="link" data-entity-1="ent0002" data-entity-2="ent0011" data-link-type="dependency" data-source-line="28" id="lnk23"><path d="M222.1,659.7779 C273.33,659.7779 328.09,659.7779 364.99,659.7779" fill="none" id="source_github_workflows_ci_yml-to-tool_pylint" style="stroke:#181818;stroke-width:1;"/><polygon fill="#181818" points="370.99,659.7779,361.99,655.7779,365.99,659.7779,361.99,663.7779,370.99,659.7779" style="stroke:#181818;stroke-width:1;"/></g><!--link source_github_workflows_ci_yml to tool_pytest--><g class="link" data-entity-1="ent0002" data-entity-2="ent0012" data-link-type="dependency" data-source-line="29" id="lnk24"><path d="M176.5,689.1579 C176.5,713.3779 176.5,743.7779 176.5,743.7779 C176.5,743.7779 298.83,743.7779 363,743.7779" fill="none" id="source_github_workflows_ci_yml-to-tool_pytest" style="stroke:#181818;stroke-width:1;"/><polygon fill="#181818" points="369,743.7779,360,739.7779,364,743.7779,360,747.7779,369,743.7779" style="stroke:#181818;stroke-width:1;"/></g><!--link source_github_workflows_ci_yml to tool_ruff--><g class="link" data-entity-1="ent0002" data-entity-2="ent0013" data-link-type="dependency" data-source-line="30" id="lnk25"><path d="M130.5,689.0379 C130.5,737.1679 130.5,827.7779 130.5,827.7779 C130.5,827.7779 302.02,827.7779 371.36,827.7779" fill="none" id="source_github_workflows_ci_yml-to-tool_ruff" style="stroke:#181818;stroke-width:1;"/><polygon fill="#181818" points="377.36,827.7779,368.36,823.7779,372.36,827.7779,368.36,831.7779,377.36,827.7779" style="stroke:#181818;stroke-width:1;"/></g><!--link source_github_workflows_ci_yml to tool_tee--><g class="link" data-entity-1="ent0002" data-entity-2="ent0017" data-link-type="dependency" data-source-line="31" id="lnk26"><path d="M84.5,689.1779 C84.5,755.6479 84.5,911.7779 84.5,911.7779 C84.5,911.7779 297.02,911.7779 372.99,911.7779" fill="none" id="source_github_workflows_ci_yml-to-tool_tee" style="stroke:#181818;stroke-width:1;"/><polygon fill="#181818" points="378.99,911.7779,369.99,907.7779,373.99,911.7779,369.99,915.7779,378.99,911.7779" style="stroke:#181818;stroke-width:1;"/></g><!--link source_github_workflows_secret_scan_yml to tool_actions_checkout--><g class="link" data-entity-1="ent0003" data-entity-2="ent0005" data-link-type="dependency" data-source-line="32" id="lnk27"><path d="M254.28,1014.5079 C281.39,1014.5079 303.2,1014.5079 327.41,1014.5079" fill="none" id="source_github_workflows_secret_scan_yml-to-tool_actions_checkout" style="stroke:#181818;stroke-width:1;"/><polygon fill="#181818" points="333.41,1014.5079,324.41,1010.5079,328.41,1014.5079,324.41,1018.5079,333.41,1014.5079" style="stroke:#181818;stroke-width:1;"/></g><!--link source_github_workflows_secret_scan_yml to tool_gitleaks_gitleaks_action--><g class="link" data-entity-1="ent0003" data-entity-2="ent0008" data-link-type="dependency" data-source-line="33" id="lnk28"><path d="M254.28,1061.0379 C274.15,1061.0379 288.4,1061.0379 307.33,1061.0379" fill="none" id="source_github_workflows_secret_scan_yml-to-tool_gitleaks_gitleaks_action" style="stroke:#181818;stroke-width:1;"/><polygon fill="#181818" points="313.33,1061.0379,304.33,1057.0379,308.33,1061.0379,304.33,1065.0379,313.33,1061.0379" style="stroke:#181818;stroke-width:1;"/></g><!--link source_scripts_run_tachometer_profile_sh to tool_run--><g class="link" data-entity-1="ent0004" data-entity-2="ent0014" data-link-type="dependency" data-source-line="34" id="lnk29"><path d="M242.5,126.5179 C242.5,101.4479 242.5,69.3579 242.5,69.3579 C242.5,69.3579 325.82,69.3579 371.87,69.3579" fill="none" id="source_scripts_run_tachometer_profile_sh-to-tool_run" style="stroke:#181818;stroke-width:1;"/><polygon fill="#181818" points="377.87,69.3579,368.87,65.3579,372.87,69.3579,368.87,73.3579,377.87,69.3579" style="stroke:#181818;stroke-width:1;"/></g><!--link source_scripts_run_tachometer_profile_sh to tool_summarize--><g class="link" data-entity-1="ent0004" data-entity-2="ent0015" data-link-type="dependency" data-source-line="35" id="lnk30"><path d="M251.88,155.7779 C287.27,155.7779 318.07,155.7779 346.68,155.7779" fill="none" id="source_scripts_run_tachometer_profile_sh-to-tool_summarize" style="stroke:#181818;stroke-width:1;"/><polygon fill="#181818" points="352.68,155.7779,343.68,151.7779,347.68,155.7779,343.68,159.7779,352.68,155.7779" style="stroke:#181818;stroke-width:1;"/></g><!--link source_scripts_run_tachometer_profile_sh to tool_tachometer--><g class="link" data-entity-1="ent0004" data-entity-2="ent0016" data-link-type="dependency" data-source-line="36" id="lnk31"><path d="M236.5,185.1579 C236.5,209.3779 236.5,239.7779 236.5,239.7779 C236.5,239.7779 295.77,239.7779 344.98,239.7779" fill="none" id="source_scripts_run_tachometer_profile_sh-to-tool_tachometer" style="stroke:#181818;stroke-width:1;"/><polygon fill="#181818" points="350.98,239.7779,341.98,235.7779,345.98,239.7779,341.98,243.7779,350.98,239.7779" style="stroke:#181818;stroke-width:1;"/></g><?plantuml-src dPLDZziW48Rl_XKeUtRIRWvLBxsqITL3UqcFAo4MZsra38WPAt9_VS5UVzJUR9szUNYVTmRC0AH80vEAeF20xBUrMfc2_J1nG92o1XCDEJ6opAkY99Of3p8A2LRAEE55pR0KcRr6Oouqmap981UDfhCrz4lKm7vQOz49EMUahPqrOEX2RPXCJ2zCeUT8c1HGwu1PJwLDHeJjzeMYida-NAslScslU91gtzRwoNmEnIc0a8N9Muqx9f2XRRm4tfluQE9IyM1Y3wSFvyVpwUq22D83fIY5wIiztbEfT_FelbKIfLUEyE0Rmqd8qjOXlUVEsrnfs6FvP8vlb7onyzVj7CknfjIsoTXETFiP_bm9ih8DTSbYMlwYy45X3-VJ-VZrqzA9G8rBNHisnwpTdSfxTPdXMGjPJPOkN395R59HuM7uIFlCasqGfe-UM6RIcCP_W9DJ8-z6bgHJRe92iDBRq9EpFzN7Que0_w5YlAHya-SJ4wCrOUR0QbtOrBNmwWzCr3YqPAUMcE1fR4N3B6S8Hlq_9obDlxpUGdSRvzspsTprqMPwQ8BDXj0GszckC-x0OujincEtR8R3_YLRxwNxD_1cXbkdCzbyOSsM-nxNU1RUuPtan5Y2uIo4n-wx5wwyTAdRv19MRS9jV1nK5XuqtpeRzXxtoRVXjluOW5BvB0qF6xNzvRrFm6GiPlyB?></g></svg>
