<?plantuml 1.2026.2?><svg xmlns="http://www.w3.org/2000/svg" xmlns:xlink="http://www.w3.org/1999/xlink" contentStyleType="text/css" data-diagram-type="DESCRIPTION" height="1033px" preserveAspectRatio="none" style="width:492px;height:1033px;background:#FFFFFF;" version="1.1" viewBox="0 0 492 1033" width="492px" zoomAndPan="magnify"><title>citegres Tooling Integrations</title><defs/><g><g class="title" data-source-line="1"><text fill="#000000" font-family="Monospace" font-size="14" font-weight="bold" lengthAdjust="spacing" textLength="201.6658" x="138.2916" y="24.9659">citegres&#160;Tooling&#160;Integrations</text></g><!--entity source_github_workflows_ci_yml--><g class="entity" data-qualified-name="source_github_workflows_ci_yml" data-source-line="7" id="ent0002"><rect fill="#E0F2FE" height="58.1358" rx="2.5" ry="2.5" style="stroke:#181818;stroke-width:0.5;" width="182.6234" x="36.83" y="630.7079"/><text fill="#000000" font-family="Monospace" font-size="14" lengthAdjust="spacing" textLength="162.6234" x="46.83" y="655.6739">.github/workflows/ci.yml</text><text fill="#000000" font-family="Monospace" font-size="14" lengthAdjust="spacing" textLength="105.3356" x="46.83" y="674.7418">9&#160;detected&#160;tools</text></g><!--entity source_scripts_run_tachometer_profile_sh--><g class="entity" data-qualified-name="source_scripts_run_tachometer_profile_sh" data-source-line="8" id="ent0003"><rect fill="#E0F2FE" height="58.1358" rx="2.5" ry="2.5" style="stroke:#181818;stroke-width:0.5;" width="242.2912" x="7" y="126.7079"/><text fill="#000000" font-family="Monospace" font-size="14" lengthAdjust="spacing" textLength="222.2912" x="17" y="151.6739">scripts/run_tachometer_profile.sh</text><text fill="#000000" font-family="Monospace" font-size="14" lengthAdjust="spacing" textLength="105.3356" x="17" y="170.7418">3&#160;detected&#160;tools</text></g><!--entity tool_actions_checkout--><g class="entity" data-qualified-name="tool_actions_checkout" data-source-line="9" id="ent0004"><path d="M332.9021,307.6036 C336.7539,301.4446 341.4965,301.5851 345.226,307.7262 C348.5317,300.9632 353.5334,302.2122 357.572,306.9387 C362.1923,299.7913 366.4529,299.9161 371.0939,306.919 C375.3687,300.6356 379.2013,301.6236 383.2973,307.1045 C386.6288,302.4186 391.8424,302.5722 394.6226,307.7382 C397.3208,302.0805 403.5873,301.5886 407.1645,306.7161 C411.2441,300.6788 416.5419,300.7384 420.915,306.3702 C426.0896,300.9347 430.8512,301.4348 433.7016,308.7085 C436.6726,302.5845 442.1529,302.6686 445.1915,308.6443 C449.1603,302.8108 453.5444,303.5678 457.5544,308.5974 C467.2357,311.007 468.5459,317.1667 463.5482,324.955 C468.9931,333.4122 467.528,338.5155 457.5847,341.3885 C455.3371,347.0599 449.9773,347.5312 446.8014,342.3073 C443.2144,348.8175 437.0523,349.4068 432.4611,343.4636 C429.7276,349.3661 425.7571,350.9815 420.5271,346.2708 C417.2462,352.7747 412.7501,352.5988 408.6701,347.0573 C406.1417,354.4965 399.6243,354.9634 395.616,348.4411 C390.7127,354.8389 385.2536,352.7632 382.7665,346.0695 C378.8306,352.8475 372.9089,352.6921 369.3381,345.7131 C364.8034,351.2315 360.1151,349.7529 357.4415,343.7855 C353.5643,348.903 348.2053,348.5251 345.6614,342.3898 C341.2005,347.8529 334.9786,348.5887 331.7171,341.0986 C324.6191,337.0471 323.2177,329.0642 331.7987,325.0927 C323.5564,319.0645 324.5035,312.5819 332.9021,307.6036" fill="#FEF3C7" style="stroke:#181818;stroke-width:0.5;"/><text fill="#000000" font-family="Monospace" font-size="14" lengthAdjust="spacing" textLength="111.9156" x="338.47" y="329.2039">actions/checkout</text></g><!--entity tool_actions_setup_python--><g class="entity" data-qualified-name="tool_actions_setup_python" data-source-line="10" id="ent0005"><path d="M318.5391,392.7886 C320.7516,386.7338 324.9652,386.672 328.7839,391.2395 C333.6476,385.9098 337.9869,386.5586 341.3797,392.8357 C343.2757,388.2463 348.0736,386.3921 351.5296,391.1398 C354.8891,384.8472 358.4966,384.9538 362.5651,390.4776 C366.1453,384.9911 369.883,385.8893 373.3327,390.6152 C377.1714,386.2736 380.8098,386.602 383.586,391.7618 C386.7614,385.9573 391.8179,384.3045 396.5598,389.9936 C399.6056,385.0228 402.544,385.0813 405.665,389.9238 C409.9981,384.1812 414.3261,384.8219 418.0553,390.5748 C422.098,385.6374 425.9671,386.3012 429.0286,391.6243 C431.7971,386.2513 436.5605,386.9276 439.6699,391.2501 C442.7203,385.606 447.5218,386.3211 450.2525,391.5609 C454.4774,385.9187 458.2772,386.6022 462.3137,391.771 C466.1054,386.5006 470.5572,386.814 473.7576,392.3945 C482.9026,395.0958 484.7341,403.119 478.214,409.8252 C485.2489,417.9209 482.8016,424.4588 472.2114,426.0228 C468.7294,431.6135 464.951,431.5411 461.7667,425.7495 C459.7218,431.6253 454.7828,431.2488 451.3159,427.2552 C448.569,433.1179 443.9412,433.2693 440.0438,428.4719 C436.9227,434.5877 431.1731,434.3233 428.1038,428.4204 C425.6805,433.9861 422.4516,433.365 418.5533,429.9974 C415.3992,435.1305 410.8385,435.7664 407.3269,430.3789 C404.9521,435.7606 399.2919,436.2346 395.9429,431.4721 C392.3616,437.4957 387.8183,437.169 384.131,431.5798 C380.5563,436.1587 375.3635,436.8475 372.6666,430.6464 C369.0168,435.1299 364.7118,433.6187 362.9653,428.6856 C358.5132,432.7163 354.7824,432.3805 351.6281,427.1046 C347.4918,433.2135 343.5778,431.9096 339.6984,426.8306 C337.471,431.2565 332.8423,431.123 330.1888,427.3232 C326.4147,432.9986 320.8349,432.3849 318.3362,426.0631 C308.5993,424.7773 305.0289,417.6095 309.6011,408.9989 C304.6385,400.0828 307.1667,392.6979 318.5391,392.7886" fill="#FEF3C7" style="stroke:#181818;stroke-width:0.5;"/><text fill="#000000" font-family="Monospace" font-size="14" lengthAdjust="spacing" textLength="140.2795" x="324.29" y="413.2039">actions/setup-python</text></g><!--entity tool_black--><g class="entity" data-qualified-name="tool_black" data-source-line="11" id="ent0006"><path d="M370.9112,476.8532 C372.933,470.3588 378.9775,469.8391 383.1073,474.5611 C386.9781,467.9361 391.3047,467.7907 395.7324,474.0139 C400.142,468.5195 403.9921,468.7362 407.5159,474.9086 C411.761,469.1503 417.5544,469.1937 420.4093,476.3017 C428.4022,480.1633 429.1231,486.6647 422.6001,492.4906 C429.1122,498.6082 428.231,506.4189 419.5817,509.9092 C417.8548,516.1464 412.5959,518.6505 407.245,514.025 C406.2492,520.2827 400.937,521.3895 396.5839,517.5806 C390.0392,523.0675 384.6235,521.1901 383.0711,512.7403 C377.2756,518.6409 372.4728,517.2527 370.3437,509.3578 C359.7235,507.4828 358.2382,501.3657 364.2349,493.206 C358.3182,484.88 362.1106,479.1707 370.9112,476.8532" fill="#FEF3C7" style="stroke:#181818;stroke-width:0.5;"/><text fill="#000000" font-family="Monospace" font-size="14" lengthAdjust="spacing" textLength="34.2719" x="377.29" y="497.2039">black</text></g><!--entity tool_ls_files--><g class="entity" data-qualified-name="tool_ls_files" data-source-line="12" id="ent0007"><path d="M366.9303,561.3592 C371.3106,553.0615 376.7705,553.4793 381.9762,560.5511 C385.6925,553.587 390.184,553.3631 395.8049,558.3467 C400.5072,553.2376 404.5613,551.9908 408.6722,558.9759 C413.6171,552.6712 420.5534,552.8354 423.2053,561.2413 C433.4617,560.6364 435.8731,568.9468 431.8057,576.4447 C438.1672,586.0251 435.1678,592.0769 424.2472,594.37 C420.2828,602.6749 413.2187,601.3895 409.0555,594.5697 C405.456,602.006 400.6104,602.1342 395.0617,596.6869 C390.4305,603.1076 386.3755,601.9912 382.6483,595.7974 C376.5655,601.1421 371.7793,599.6931 368.5945,592.539 C361.2942,588.2862 360.1342,582.5994 366.4592,576.5293 C358.6248,571.3922 359.3465,566.0175 366.9303,561.3592" fill="#FEF3C7" style="stroke:#181818;stroke-width:0.5;"/><text fill="#000000" font-family="Monospace" font-size="14" lengthAdjust="spacing" textLength="41.4678" x="373.7" y="581.2039">ls-files</text></g><!--entity tool_pip--><g class="entity" data-qualified-name="tool_pip" data-source-line="13" id="ent0008"><path d="M378.3012,643.3066 C382.6455,635.6787 390.1107,634.2161 395.5651,642.0686 C402.9731,633.9547 409.0818,635.9022 413.3705,645.2494 C422.7419,646.5015 426.8019,651.3941 421.967,660.6012 C428.0578,670.3279 422.3844,676.752 412.4961,677.5496 C409.5861,687.5252 403.8952,689.8925 395.5133,683.0874 C387.1973,690.1997 379.3826,686.2965 377.3946,676.3617 C369.582,672.083 367.15,667.4608 374.6587,660.5339 C367.5908,653.3159 368.4757,646.9528 378.3012,643.3066" fill="#FEF3C7" style="stroke:#181818;stroke-width:0.5;"/><text fill="#000000" font-family="Monospace" font-size="14" lengthAdjust="spacing" textLength="20.8319" x="384.01" y="665.2039">pip</text></g><!--entity tool_pylint--><g class="entity" data-qualified-name="tool_pylint" data-source-line="14" id="ent0009"><path d="M371.1473,728.1046 C374.4013,721.5521 380.005,721.0813 383.6482,727.7362 C387.2469,722.3869 392.5436,722.1065 396.5205,727.2732 C399.3285,721.8077 404.3041,720.9746 407.5702,726.8259 C412.0587,721.3053 417.8879,721.9597 420.5385,728.7603 C431.8688,728.9242 436.734,734.6854 431.32,745.5815 C434.2819,755.7938 431.7122,761.4805 420.0759,761.1481 C419.0597,768.1645 413.1869,768.3713 408.885,764.5368 C407.4954,771.5039 402.1827,773.8936 396.4581,769.1284 C390.6138,774.2949 385.24,772.4126 383.1417,765.1235 C377.9293,769.9216 373.5347,768.3737 371.1458,762.0721 C360.8993,760.9593 357.833,752.8738 364.9,745.3098 C357.5942,737.5178 361.4774,729.7325 371.1473,728.1046" fill="#FEF3C7" style="stroke:#181818;stroke-width:0.5;"/><text fill="#000000" font-family="Monospace" font-size="14" lengthAdjust="spacing" textLength="36.6799" x="376.09" y="749.2039">pylint</text></g><!--entity tool_pytest--><g class="entity" data-qualified-name="tool_pytest" data-source-line="15" id="ent0010"><path d="M368.5493,812.7232 C371.2645,805.845 378.3222,804.2415 382.9873,810.5957 C386.2165,804.8063 391.9045,804.5653 395.842,809.7673 C399.8687,803.9968 405.7301,805.0771 408.1194,811.426 C413.8068,804.0824 418.9261,803.6968 423.504,812.4842 C435.2875,812.8154 438.7219,819.7337 432.1609,829.4341 C437.6847,839.0046 433.835,846.185 422.4591,845.6356 C420.7527,853.277 415.929,855.0862 410.1081,849.4684 C408.2812,857.0677 401.925,860.1915 395.2565,855.1624 C390.0718,859.384 383.4324,858.1444 382.795,850.4192 C375.6972,856.3782 369.133,853.7221 368.6106,844.3397 C360.5031,841.5464 357.0682,835.8936 363.4068,828.3877 C356.408,820.929 360.5814,815.2685 368.5493,812.7232" fill="#FEF3C7" style="stroke:#181818;stroke-width:0.5;"/><text fill="#000000" font-family="Monospace" font-size="14" lengthAdjust="spacing" textLength="40.4599" x="374.2" y="833.2039">pytest</text></g><!--entity tool_ruff--><g class="entity" data-qualified-name="tool_ruff" data-source-line="16" id="ent0011"><path d="M375.9832,895.9253 C380.8531,886.5258 390.2361,885.7936 395.8562,895.1296 C402.6649,887.4368 408.3465,887.4715 413.4854,896.8536 C424.041,897.5033 426.2917,904.0972 421.4755,912.5645 C426.2534,921.394 422.8504,926.3586 413.8439,928.6472 C408.7011,938.6025 403.0108,939.3056 395.3729,931.1988 C388.7235,938.788 380.4381,939.587 376.2721,928.6398 C367.2682,927.3319 364.5461,920.3738 370.789,913.5323 C363.469,906.3011 367.2346,898.416 375.9832,895.9253" fill="#FEF3C7" style="stroke:#181818;stroke-width:0.5;"/><text fill="#000000" font-family="Monospace" font-size="14" lengthAdjust="spacing" textLength="24.0659" x="382.4" y="917.2039">ruff</text></g><!--entity tool_run--><g class="entity" data-qualified-name="tool_run" data-source-line="17" id="ent0012"><path d="M376.1002,56.8706 C380.9718,47.7293 389.2748,46.1296 396.3351,54.3143 C402.1987,46.5504 410.5235,48.2883 413.9227,56.9525 C423.5123,57.6613 429.2016,62.4144 423.7144,72.5737 C428.9485,82.0202 425.4465,87.44 415.073,88.3228 C414.8346,101.0475 408.5031,106.0421 396.5097,99.8709 C385.603,104.9036 378.4406,103.4176 377.7402,89.6703 C368.0793,88.8356 364.2911,80.744 369.6439,72.7327 C364.5885,64.6057 367.0047,59.2377 376.1002,56.8706" fill="#FEF3C7" style="stroke:#181818;stroke-width:0.5;"/><text fill="#000000" font-family="Monospace" font-size="14" lengthAdjust="spacing" textLength="23.0859" x="382.89" y="77.2039">run</text></g><!--entity tool_summarize--><g class="entity" data-qualified-name="tool_summarize" data-source-line="18" id="ent0013"><path d="M351.9662,139.7082 C357.1605,132.088 362.3979,133.6617 366.8254,140.4963 C370.4419,133.3452 376.1494,133.5795 380.2302,140.0389 C385.0642,132.5754 389.8309,131.3054 396.0359,138.5673 C400.0967,131.1997 407.1965,131.4657 410.8206,139.0007 C415.4051,132.1413 422.2965,132.4184 425.5124,140.3593 C429.1489,134.5447 435.849,133.9823 439.0117,140.8631 C448.3794,140.9338 452.4894,148.7506 447.3993,156.5512 C453.3439,165.1643 449.6713,171.1668 440.0764,172.7589 C436.2944,180.6105 428.7045,180.5184 423.7862,174.0518 C420.4799,182.1689 415.1983,181.6599 409.9395,176.0165 C407.1474,183.3974 400.2639,182.8845 396.2046,177.3659 C391.3756,182.9427 386.4055,183.9218 382.0681,176.8179 C376.5102,182.4858 370.1888,181.7947 367.0919,174.0665 C362.902,181.7863 356.4119,181.8264 352.5376,173.7753 C341.9776,172.9199 340.0451,163.6176 345.4871,156.3045 C340.1733,149.1206 341.2392,140.6298 351.9662,139.7082" fill="#FEF3C7" style="stroke:#181818;stroke-width:0.5;"/><text fill="#000000" font-family="Monospace" font-size="14" lengthAdjust="spacing" textLength="73.2617" x="357.8" y="161.2039">summarize</text></g><!--entity tool_tachometer--><g class="entity" data-qualified-name="tool_tachometer" data-source-line="19" id="ent0014"><path d="M350.7772,223.6907 C353.5507,218.6174 358.106,218.9775 360.8374,223.7338 C364.9184,217.5092 370.2657,218.9347 373.7226,224.4206 C377.0405,218.9344 380.2963,218.5078 384.0378,224.0235 C386.9286,217.1195 391.4821,217.0811 396.2158,222.1488 C400.0308,216.9114 404.4224,219.0105 406.7033,223.7599 C409.8361,218.6305 413.8649,218.416 417.386,223.3474 C421.2274,217.506 426.1307,218.6284 429.1976,224.1523 C432.266,218.4488 436.9069,219.7477 439.8823,224.2497 C448.1108,228.061 448.7921,235.0747 441.6296,240.5371 C449.65,245.5006 449.131,251.1823 441.7984,256.3101 C438.6161,261.712 434.3287,262.4527 430.4012,257.0998 C427.7429,263.7654 422.6821,264.0238 418.168,259.0502 C414.2025,264.4338 410.8846,263.6977 407.1671,258.7852 C404.7591,264.4725 399.4953,264.6148 396.4916,259.3666 C393.0825,264.1032 387.985,264.5201 384.8693,259.0332 C380.8447,262.8121 376.1351,263.0921 374.0026,256.959 C371.003,263.9778 364.8663,263.2166 360.8272,258.0863 C357.2831,262.5639 351.657,262.1996 349.3047,256.7087 C340.4979,255.5597 337.5425,247.3143 342.4187,240.3911 C337.7021,230.9882 339.1216,224.8994 350.7772,223.6907" fill="#FEF3C7" style="stroke:#181818;stroke-width:0.5;"/><text fill="#000000" font-family="Monospace" font-size="14" lengthAdjust="spacing" textLength="76.4677" x="356.2" y="245.2039">tachometer</text></g><!--entity tool_tee--><g class="entity" data-qualified-name="tool_tee" data-source-line="20" id="ent0015"><path d="M378.3012,979.3066 C382.6474,971.6758 390.1157,970.2128 395.5721,978.0686 C402.9824,969.9511 409.0935,971.8989 413.3845,981.2494 C422.7559,982.5015 426.8159,987.3941 421.981,996.6012 C428.0718,1006.3279 422.3984,1012.752 412.5101,1013.5496 C409.5978,1023.5286 403.9045,1025.8961 395.5203,1019.0874 C387.2024,1026.2031 379.3846,1022.2997 377.3946,1012.3617 C369.582,1008.083 367.15,1003.4608 374.6587,996.5339 C367.5908,989.3159 368.4757,982.9528 378.3012,979.3066" fill="#FEF3C7" style="stroke:#181818;stroke-width:0.5;"/><text fill="#000000" font-family="Monospace" font-size="14" lengthAdjust="spacing" textLength="20.8459" x="384.01" y="1001.2039">tee</text></g><g class="entity" data-qualified-name="toolingGraphSummary" data-source-line="34" id="ent0028"><path d="M24.39,46.0679 L24.39,91.4799 L231.9012,91.4799 L231.9012,56.0679 L221.9012,46.0679 L24.39,46.0679" fill="#FEFFDD" style="stroke:#181818;stroke-width:0.5;"/><path d="M221.9012,46.0679 L221.9012,56.0679 L231.9012,56.0679 L221.9012,46.0679" fill="#FEFFDD" style="stroke:#181818;stroke-width:1;"/><text fill="#000000" font-family="Monospace" font-size="13" lengthAdjust="spacing" textLength="186.5112" x="30.39" y="64.9649">Scanned&#160;2&#160;tooling&#160;entrypoints.</text><text fill="#000000" font-family="Monospace" font-size="13" lengthAdjust="spacing" textLength="179.2182" x="30.39" y="82.6709">Detected&#160;12&#160;third-party&#160;tools.</text></g><!--link source_github_workflows_ci_yml to tool_actions_checkout--><g class="link" data-entity-1="ent0002" data-entity-2="ent0004" data-link-type="dependency" data-source-line="21" id="lnk16"><path d="M97.57,630.2479 C97.57,548.2579 97.57,323.7779 97.57,323.7779 C97.57,323.7779 229.5,323.7779 317.33,323.7779" fill="none" id="source_github_workflows_ci_yml-to-tool_actions_checkout" style="stroke:#181818;stroke-width:1;"/><polygon fill="#181818" points="323.33,323.7779,314.33,319.7779,318.33,323.7779,314.33,327.7779,323.33,323.7779" style="stroke:#181818;stroke-width:1;"/></g><!--link source_github_workflows_ci_yml to tool_actions_setup_python--><g class="link" data-entity-1="ent0002" data-entity-2="ent0005" data-link-type="dependency" data-source-line="22" id="lnk17"><path d="M219.74,645.0579 C274.52,645.0579 333.57,645.0579 333.57,645.0579 C333.57,645.0579 333.57,499.6379 333.57,438.7179" fill="none" id="source_github_workflows_ci_yml-to-tool_actions_setup_python" style="stroke:#181818;stroke-width:1;"/><polygon fill="#181818" points="333.57,432.7179,329.57,441.7179,333.57,437.7179,337.57,441.7179,333.57,432.7179" style="stroke:#181818;stroke-width:1;"/></g><!--link source_github_workflows_ci_yml to tool_black--><g class="link" data-entity-1="ent0002" data-entity-2="ent0006" data-link-type="dependency" data-source-line="23" id="lnk18"><path d="M158.57,630.5079 C158.57,582.3779 158.57,491.7779 158.57,491.7779 C158.57,491.7779 291.53,491.7779 356.13,491.7779" fill="none" id="source_github_workflows_ci_yml-to-tool_black" style="stroke:#181818;stroke-width:1;"/><polygon fill="#181818" points="362.13,491.7779,353.13,487.7779,357.13,491.7779,353.13,495.7779,362.13,491.7779" style="stroke:#181818;stroke-width:1;"/></g><!--link source_github_workflows_ci_yml to tool_ls_files--><g class="link" data-entity-1="ent0002" data-entity-2="ent0007" data-link-type="dependency" data-source-line="24" id="lnk19"><path d="M219.65,654.8679 C286.88,654.8679 366.57,654.8679 366.57,654.8679 C366.57,654.8679 366.57,629.9679 366.57,606.7979" fill="none" id="source_github_workflows_ci_yml-to-tool_ls_files" style="stroke:#181818;stroke-width:1;"/><polygon fill="#181818" points="366.57,600.7979,362.57,609.7979,366.57,605.7979,370.57,609.7979,366.57,600.7979" style="stroke:#181818;stroke-width:1;"/></g><!--link source_github_workflows_ci_yml to tool_pip--><g class="link" data-entity-1="ent0002" data-entity-2="ent0008" data-link-type="dependency" data-source-line="25" id="lnk20"><path d="M219.79,664.6779 C272.29,664.6779 328.36,664.6779 362.56,664.6779" fill="none" id="source_github_workflows_ci_yml-to-tool_pip" style="stroke:#181818;stroke-width:1;"/><polygon fill="#181818" points="368.56,664.6779,359.56,660.6779,363.56,664.6779,359.56,668.6779,368.56,664.6779" style="stroke:#181818;stroke-width:1;"/></g><!--link source_github_workflows_ci_yml to tool_pylint--><g class="link" data-entity-1="ent0002" data-entity-2="ent0009" data-link-type="dependency" data-source-line="26" id="lnk21"><path d="M219.84,674.4979 C285.94,674.4979 363.57,674.4979 363.57,674.4979 C363.57,674.4979 363.57,692.9179 363.57,712.7579" fill="none" id="source_github_workflows_ci_yml-to-tool_pylint" style="stroke:#181818;stroke-width:1;"/><polygon fill="#181818" points="363.57,718.7579,367.57,709.7579,363.57,713.7579,359.57,709.7579,363.57,718.7579" style="stroke:#181818;stroke-width:1;"/></g><!--link source_github_workflows_ci_yml to tool_pytest--><g class="link" data-entity-1="ent0002" data-entity-2="ent0010" data-link-type="dependency" data-source-line="27" id="lnk22"><path d="M173.57,689.0379 C173.57,737.1679 173.57,827.7779 173.57,827.7779 C173.57,827.7779 290.51,827.7779 352.95,827.7779" fill="none" id="source_github_workflows_ci_yml-to-tool_pytest" style="stroke:#181818;stroke-width:1;"/><polygon fill="#181818" points="358.95,827.7779,349.95,823.7779,353.95,827.7779,349.95,831.7779,358.95,827.7779" style="stroke:#181818;stroke-width:1;"/></g><!--link source_github_workflows_ci_yml to tool_ruff--><g class="link" data-entity-1="ent0002" data-entity-2="ent0011" data-link-type="dependency" data-source-line="28" id="lnk23"><path d="M128.57,689.1779 C128.57,755.6479 128.57,911.7779 128.57,911.7779 C128.57,911.7779 293.05,911.7779 360.98,911.7779" fill="none" id="source_github_workflows_ci_yml-to-tool_ruff" style="stroke:#181818;stroke-width:1;"/><polygon fill="#181818" points="366.98,911.7779,357.98,907.7779,361.98,911.7779,357.98,915.7779,366.98,911.7779" style="stroke:#181818;stroke-width:1;"/></g><!--link source_github_workflows_ci_yml to tool_tee--><g class="link" data-entity-1="ent0002" data-entity-2="ent0015" data-link-type="dependency" data-source-line="29" id="lnk24"><path d="M82.57,689.2979 C82.57,771.2879 82.57,995.7779 82.57,995.7779 C82.57,995.7779 287.93,995.7779 362.64,995.7779" fill="none" id="source_github_workflows_ci_yml-to-tool_tee" style="stroke:#181818;stroke-width:1;"/><polygon fill="#181818" points="368.64,995.7779,359.64,991.7779,363.64,995.7779,359.64,999.7779,368.64,995.7779" style="stroke:#181818;stroke-width:1;"/></g><!--link source_scripts_run_tachometer_profile_sh to tool_run--><g class="link" data-entity-1="ent0003" data-entity-2="ent0012" data-link-type="dependency" data-source-line="30" id="lnk25"><path d="M240.57,126.5179 C240.57,101.4479 240.57,69.3579 240.57,69.3579 C240.57,69.3579 317.55,69.3579 361.63,69.3579" fill="none" id="source_scripts_run_tachometer_profile_sh-to-tool_run" style="stroke:#181818;stroke-width:1;"/><polygon fill="#181818" points="367.63,69.3579,358.63,65.3579,362.63,69.3579,358.63,73.3579,367.63,69.3579" style="stroke:#181818;stroke-width:1;"/></g><!--link source_scripts_run_tachometer_profile_sh to tool_summarize--><g class="link" data-entity-1="ent0003" data-entity-2="ent0013" data-link-type="dependency" data-source-line="31" id="lnk26"><path d="M249.6,155.7779 C282.25,155.7779 309.84,155.7779 336.44,155.7779" fill="none" id="source_scripts_run_tachometer_profile_sh-to-tool_summarize" style="stroke:#181818;stroke-width:1;"/><polygon fill="#181818" points="342.44,155.7779,333.44,151.7779,337.44,155.7779,333.44,159.7779,342.44,155.7779" style="stroke:#181818;stroke-width:1;"/></g><!--link source_scripts_run_tachometer_profile_sh to tool_tachometer--><g class="link" data-entity-1="ent0003" data-entity-2="ent0014" data-link-type="dependency" data-source-line="32" id="lnk27"><path d="M234.57,185.1579 C234.57,209.3779 234.57,239.7779 234.57,239.7779 C234.57,239.7779 288.31,239.7779 334.76,239.7779" fill="none" id="source_scripts_run_tachometer_profile_sh-to-tool_tachometer" style="stroke:#181818;stroke-width:1;"/><polygon fill="#181818" points="340.76,239.7779,331.76,235.7779,335.76,239.7779,331.76,243.7779,340.76,239.7779" style="stroke:#181818;stroke-width:1;"/></g><?plantuml-src dPGzRzmm38Pt_mhXClkkJOQYIvVsN7Heb-iOG51a-YoSB0eYZOFxwolvue_QGUDafDxd9IMJ9Xks8BHXE0SWyHlH6dSMFrmwK6pGKMQXOi4eWZdNB4eJG2SXeujnNWNL2AfLYTTah9Gbc2abLAgrNA3ZNwe1yHCTabTwpcXiF3fmVE8kNYQbL-vivqYy573dGM3W6hCH4RlzsN3TFXsk62wLnIiTjDbtZNrqdsDnZY2KyV9eQISK2S8sQ90tannDKXiPJUBk-A6uBuxp0gI3yKo7q3h9IjVOnAn1-e2LiR2d-j4z_AVIirs-R9TKZpMrnROKEzL_tFYC6lG5M-wJfRJoMP638kwAO_7mzTFIIS2jptqNlvHRktjLtjHbXYUhz6MozE6IiPIdczE4MPBzoPBqnazG35Pw5ziwUzyjNbCCz0-LuYKLsggQc1Ij2JS7Lc-djcbKC7zWeiQZ9JirSeAdinKDivmn6FLNXZ7FlxpS-3SRvptVREwxlvaUXc2p8Gx4ThQVZ3VWQKGsusbQDiEnVzdcNtjMmht3DSxVExoJd3ba6EOlxkZlGVdwrAVkifDMpiMzTJ-e8kxXq7cCtvlssRTXhtsCG6r2cSTzpDrjpUqpSAL8sVy2?></g></svg>
